{
	"asset":{
		"generator":"Khronos glTF Blender I/O v4.1.63",
		"version":"2.0"
	},
	"scene":0,
	"scenes":[
		{
			"name":"Scene",
			"nodes":[
				0
			]
		}
	],
	"nodes":[
		{
			"mesh":0,
			"name":"MS_Chair_Sun"
		}
	],
	"materials":[
		{
			"doubleSided":true,
			"name":"MT_Chair_Sun",
			"pbrMetallicRoughness":{}
		}
	],
	"meshes":[
		{
			"name":"MS_Chair_Sun",
			"primitives":[
				{
					"attributes":{
						"POSITION":0,
						"NORMAL":1,
						"TEXCOORD_0":2
					},
					"indices":3,
					"material":0
				}
			]
		}
	],
	"accessors":[
		{
			"bufferView":0,
			"componentType":5126,
			"count":700,
			"max":[
				0.3400000035762787,
				1.218000054359436,
				0.3020000457763672
			],
			"min":[
				-0.3400000333786011,
				-3.591412678360939e-05,
				-0.5117858648300171
			],
			"type":"VEC3"
		},
		{
			"bufferView":1,
			"componentType":5126,
			"count":700,
			"type":"VEC3"
		},
		{
			"bufferView":2,
			"componentType":5126,
			"count":700,
			"type":"VEC2"
		},
		{
			"bufferView":3,
			"componentType":5123,
			"count":2688,
			"type":"SCALAR"
		}
	],
	"bufferViews":[
		{
			"buffer":0,
			"byteLength":8400,
			"byteOffset":0,
			"target":34962
		},
		{
			"buffer":0,
			"byteLength":8400,
			"byteOffset":8400,
			"target":34962
		},
		{
			"buffer":0,
			"byteLength":5600,
			"byteOffset":16800,
			"target":34962
		},
		{
			"buffer":0,
			"byteLength":5376,
			"byteOffset":22400,
			"target":34963
		}
	],
	"buffers":[
		{
			"byteLength":27776,
			"uri":"BL_Chair_Sun.bin"
		}
	]
}
