{
	"asset":{
		"generator":"Khronos glTF Blender I/O v4.1.63",
		"version":"2.0"
	},
	"scene":0,
	"scenes":[
		{
			"name":"Scene",
			"nodes":[
				0
			]
		}
	],
	"nodes":[
		{
			"mesh":0,
			"name":"MS_Campfire"
		}
	],
	"materials":[
		{
			"doubleSided":true,
			"name":"MT_Campfire",
			"pbrMetallicRoughness":{}
		}
	],
	"meshes":[
		{
			"name":"MS_Campfire",
			"primitives":[
				{
					"attributes":{
						"POSITION":0,
						"NORMAL":1,
						"TEXCOORD_0":2
					},
					"indices":3,
					"material":0
				}
			]
		}
	],
	"accessors":[
		{
			"bufferView":0,
			"componentType":5126,
			"count":670,
			"max":[
				0.6624367833137512,
				0.18659377098083496,
				0.7201462984085083
			],
			"min":[
				-0.7175632119178772,
				-0.00401109317317605,
				-0.5792068839073181
			],
			"type":"VEC3"
		},
		{
			"bufferView":1,
			"componentType":5126,
			"count":670,
			"type":"VEC3"
		},
		{
			"bufferView":2,
			"componentType":5126,
			"count":670,
			"type":"VEC2"
		},
		{
			"bufferView":3,
			"componentType":5123,
			"count":3393,
			"type":"SCALAR"
		}
	],
	"bufferViews":[
		{
			"buffer":0,
			"byteLength":8040,
			"byteOffset":0,
			"target":34962
		},
		{
			"buffer":0,
			"byteLength":8040,
			"byteOffset":8040,
			"target":34962
		},
		{
			"buffer":0,
			"byteLength":5360,
			"byteOffset":16080,
			"target":34962
		},
		{
			"buffer":0,
			"byteLength":6786,
			"byteOffset":21440,
			"target":34963
		}
	],
	"buffers":[
		{
			"byteLength":28228,
			"uri":"BL_Campfire.bin"
		}
	]
}
