{
	"asset":{
		"generator":"Khronos glTF Blender I/O v4.1.63",
		"version":"2.0"
	},
	"scene":0,
	"scenes":[
		{
			"name":"Scene",
			"nodes":[
				0
			]
		}
	],
	"nodes":[
		{
			"mesh":0,
			"name":"MS_Crate"
		}
	],
	"materials":[
		{
			"doubleSided":true,
			"name":"MT_Crate",
			"pbrMetallicRoughness":{}
		}
	],
	"meshes":[
		{
			"name":"MS_Crate",
			"primitives":[
				{
					"attributes":{
						"POSITION":0,
						"NORMAL":1,
						"TEXCOORD_0":2
					},
					"indices":3,
					"material":0
				}
			]
		}
	],
	"accessors":[
		{
			"bufferView":0,
			"componentType":5126,
			"count":198,
			"max":[
				0.9799999594688416,
				0.800000011920929,
				0.5
			],
			"min":[
				-0.9799999594688416,
				0,
				-0.5000000596046448
			],
			"type":"VEC3"
		},
		{
			"bufferView":1,
			"componentType":5126,
			"count":198,
			"type":"VEC3"
		},
		{
			"bufferView":2,
			"componentType":5126,
			"count":198,
			"type":"VEC2"
		},
		{
			"bufferView":3,
			"componentType":5123,
			"count":420,
			"type":"SCALAR"
		}
	],
	"bufferViews":[
		{
			"buffer":0,
			"byteLength":2376,
			"byteOffset":0,
			"target":34962
		},
		{
			"buffer":0,
			"byteLength":2376,
			"byteOffset":2376,
			"target":34962
		},
		{
			"buffer":0,
			"byteLength":1584,
			"byteOffset":4752,
			"target":34962
		},
		{
			"buffer":0,
			"byteLength":840,
			"byteOffset":6336,
			"target":34963
		}
	],
	"buffers":[
		{
			"byteLength":7176,
			"uri":"BL_Crate.bin"
		}
	]
}
