{
	"asset":{
		"generator":"Khronos glTF Blender I/O v4.1.63",
		"version":"2.0"
	},
	"scene":0,
	"scenes":[
		{
			"name":"Scene",
			"nodes":[
				0
			]
		}
	],
	"nodes":[
		{
			"mesh":0,
			"name":"MS_Firepot"
		}
	],
	"materials":[
		{
			"doubleSided":true,
			"name":"MT_Firepot",
			"pbrMetallicRoughness":{}
		}
	],
	"meshes":[
		{
			"name":"MS_Firepot",
			"primitives":[
				{
					"attributes":{
						"POSITION":0,
						"NORMAL":1,
						"TEXCOORD_0":2
					},
					"indices":3,
					"material":0
				}
			]
		}
	],
	"accessors":[
		{
			"bufferView":0,
			"componentType":5126,
			"count":1572,
			"max":[
				0.3272427022457123,
				0.5199996829032898,
				0.3749943673610687
			],
			"min":[
				-0.3272426724433899,
				-1.341104507446289e-07,
				-0.37499433755874634
			],
			"type":"VEC3"
		},
		{
			"bufferView":1,
			"componentType":5126,
			"count":1572,
			"type":"VEC3"
		},
		{
			"bufferView":2,
			"componentType":5126,
			"count":1572,
			"type":"VEC2"
		},
		{
			"bufferView":3,
			"componentType":5123,
			"count":5340,
			"type":"SCALAR"
		}
	],
	"bufferViews":[
		{
			"buffer":0,
			"byteLength":18864,
			"byteOffset":0,
			"target":34962
		},
		{
			"buffer":0,
			"byteLength":18864,
			"byteOffset":18864,
			"target":34962
		},
		{
			"buffer":0,
			"byteLength":12576,
			"byteOffset":37728,
			"target":34962
		},
		{
			"buffer":0,
			"byteLength":10680,
			"byteOffset":50304,
			"target":34963
		}
	],
	"buffers":[
		{
			"byteLength":60984,
			"uri":"BL_Firepot.bin"
		}
	]
}
