{
	"asset":{
		"generator":"Khronos glTF Blender I/O v4.1.63",
		"version":"2.0"
	},
	"scene":0,
	"scenes":[
		{
			"name":"Scene",
			"nodes":[
				0,
				1
			]
		}
	],
	"nodes":[
		{
			"mesh":0,
			"name":"MS_Retro_Radio"
		},
		{
			"mesh":1,
			"name":"Handle"
		}
	],
	"materials":[
		{
			"doubleSided":true,
			"name":"MT_Retro_Radio",
			"pbrMetallicRoughness":{}
		}
	],
	"meshes":[
		{
			"name":"MS_Retro_Radio",
			"primitives":[
				{
					"attributes":{
						"POSITION":0,
						"NORMAL":1,
						"TEXCOORD_0":2
					},
					"indices":3,
					"material":0
				}
			]
		},
		{
			"name":"MS_Radio_Vostok.002",
			"primitives":[
				{
					"attributes":{
						"POSITION":4,
						"NORMAL":5,
						"TEXCOORD_0":6
					},
					"indices":7,
					"material":0
				}
			]
		}
	],
	"accessors":[
		{
			"bufferView":0,
			"componentType":5126,
			"count":598,
			"max":[
				0.21000000834465027,
				0.21300001442432404,
				0.05000000447034836
			],
			"min":[
				-0.21000000834465027,
				-1.4901161193847656e-08,
				-0.06771145015954971
			],
			"type":"VEC3"
		},
		{
			"bufferView":1,
			"componentType":5126,
			"count":598,
			"type":"VEC3"
		},
		{
			"bufferView":2,
			"componentType":5126,
			"count":598,
			"type":"VEC2"
		},
		{
			"bufferView":3,
			"componentType":5123,
			"count":1551,
			"type":"SCALAR"
		},
		{
			"bufferView":4,
			"componentType":5126,
			"count":298,
			"max":[
				0.21000000834465027,
				0.16099999845027924,
				0.011000005528330803
			],
			"min":[
				-0.21000000834465027,
				0.13899998366832733,
				-0.08000000566244125
			],
			"type":"VEC3"
		},
		{
			"bufferView":5,
			"componentType":5126,
			"count":298,
			"type":"VEC3"
		},
		{
			"bufferView":6,
			"componentType":5126,
			"count":298,
			"type":"VEC2"
		},
		{
			"bufferView":7,
			"componentType":5123,
			"count":798,
			"type":"SCALAR"
		}
	],
	"bufferViews":[
		{
			"buffer":0,
			"byteLength":7176,
			"byteOffset":0,
			"target":34962
		},
		{
			"buffer":0,
			"byteLength":7176,
			"byteOffset":7176,
			"target":34962
		},
		{
			"buffer":0,
			"byteLength":4784,
			"byteOffset":14352,
			"target":34962
		},
		{
			"buffer":0,
			"byteLength":3102,
			"byteOffset":19136,
			"target":34963
		},
		{
			"buffer":0,
			"byteLength":3576,
			"byteOffset":22240,
			"target":34962
		},
		{
			"buffer":0,
			"byteLength":3576,
			"byteOffset":25816,
			"target":34962
		},
		{
			"buffer":0,
			"byteLength":2384,
			"byteOffset":29392,
			"target":34962
		},
		{
			"buffer":0,
			"byteLength":1596,
			"byteOffset":31776,
			"target":34963
		}
	],
	"buffers":[
		{
			"byteLength":33372,
			"uri":"BL_Retro_Radio.bin"
		}
	]
}
