{
	"asset":{
		"generator":"Khronos glTF Blender I/O v4.1.63",
		"version":"2.0"
	},
	"scene":0,
	"scenes":[
		{
			"name":"Scene",
			"nodes":[
				0
			]
		}
	],
	"nodes":[
		{
			"mesh":0,
			"name":"MS_Sign_Billboard"
		}
	],
	"materials":[
		{
			"doubleSided":true,
			"name":"MT_Sign_Billboard",
			"pbrMetallicRoughness":{}
		}
	],
	"meshes":[
		{
			"name":"MS_Sign_Billboard",
			"primitives":[
				{
					"attributes":{
						"POSITION":0,
						"NORMAL":1,
						"TEXCOORD_0":2
					},
					"indices":3,
					"material":0
				}
			]
		}
	],
	"accessors":[
		{
			"bufferView":0,
			"componentType":5126,
			"count":943,
			"max":[
				1.059999942779541,
				3.3999991416931152,
				0.060000017285346985
			],
			"min":[
				-1.059999942779541,
				-2.980232505223057e-09,
				-0.040000006556510925
			],
			"type":"VEC3"
		},
		{
			"bufferView":1,
			"componentType":5126,
			"count":943,
			"type":"VEC3"
		},
		{
			"bufferView":2,
			"componentType":5126,
			"count":943,
			"type":"VEC2"
		},
		{
			"bufferView":3,
			"componentType":5123,
			"count":2628,
			"type":"SCALAR"
		}
	],
	"bufferViews":[
		{
			"buffer":0,
			"byteLength":11316,
			"byteOffset":0,
			"target":34962
		},
		{
			"buffer":0,
			"byteLength":11316,
			"byteOffset":11316,
			"target":34962
		},
		{
			"buffer":0,
			"byteLength":7544,
			"byteOffset":22632,
			"target":34962
		},
		{
			"buffer":0,
			"byteLength":5256,
			"byteOffset":30176,
			"target":34963
		}
	],
	"buffers":[
		{
			"byteLength":35432,
			"uri":"BL_Sign_Billboard.bin"
		}
	]
}
