{
	"asset":{
		"generator":"Khronos glTF Blender I/O v4.1.63",
		"version":"2.0"
	},
	"scene":0,
	"scenes":[
		{
			"name":"Scene",
			"nodes":[
				0
			]
		}
	],
	"nodes":[
		{
			"mesh":0,
			"name":"MS_Tent_Civilian"
		}
	],
	"materials":[
		{
			"doubleSided":true,
			"name":"MT_Tent_Civilian",
			"pbrMetallicRoughness":{}
		}
	],
	"meshes":[
		{
			"name":"MS_Tent_Civilian",
			"primitives":[
				{
					"attributes":{
						"POSITION":0,
						"NORMAL":1,
						"TEXCOORD_0":2
					},
					"indices":3,
					"material":0
				}
			]
		}
	],
	"accessors":[
		{
			"bufferView":0,
			"componentType":5126,
			"count":711,
			"max":[
				1.1375000476837158,
				1.2300000190734863,
				1.1375000476837158
			],
			"min":[
				-1.1375000476837158,
				-9.186586602538682e-09,
				-1.1375000476837158
			],
			"type":"VEC3"
		},
		{
			"bufferView":1,
			"componentType":5126,
			"count":711,
			"type":"VEC3"
		},
		{
			"bufferView":2,
			"componentType":5126,
			"count":711,
			"type":"VEC2"
		},
		{
			"bufferView":3,
			"componentType":5123,
			"count":2466,
			"type":"SCALAR"
		}
	],
	"bufferViews":[
		{
			"buffer":0,
			"byteLength":8532,
			"byteOffset":0,
			"target":34962
		},
		{
			"buffer":0,
			"byteLength":8532,
			"byteOffset":8532,
			"target":34962
		},
		{
			"buffer":0,
			"byteLength":5688,
			"byteOffset":17064,
			"target":34962
		},
		{
			"buffer":0,
			"byteLength":4932,
			"byteOffset":22752,
			"target":34963
		}
	],
	"buffers":[
		{
			"byteLength":27684,
			"uri":"BL_Tent_Civilian.bin"
		}
	]
}
