{
	"asset":{
		"generator":"Khronos glTF Blender I/O v4.1.63",
		"version":"2.0"
	},
	"extensionsUsed":[
		"KHR_materials_specular"
	],
	"scene":0,
	"scenes":[
		{
			"name":"Scene",
			"nodes":[
				0,
				1,
				2
			]
		}
	],
	"nodes":[
		{
			"mesh":0,
			"name":"LogEnds",
			"scale":[
				1.2064849138259888,
				1.1024998426437378,
				1.1024998426437378
			],
			"translation":[
				1.8527412414550781,
				-6.583980560302734,
				7.048583984375
			]
		},
		{
			"mesh":1,
			"name":"FireplaceDirt",
			"scale":[
				5.48966646194458,
				4.6846089363098145,
				2.4229142665863037
			],
			"translation":[
				-9.13464069366455,
				2.7342493534088135,
				19.544189453125
			]
		},
		{
			"mesh":2,
			"name":"LogEnds.001",
			"scale":[
				1.2064849138259888,
				1.1024998426437378,
				1.1024998426437378
			],
			"translation":[
				1.8527412414550781,
				-6.583980560302734,
				7.048583984375
			]
		}
	],
	"materials":[
		{
			"doubleSided":true,
			"extensions":{
				"KHR_materials_specular":{
					"specularFactor":0
				}
			},
			"name":"Material",
			"pbrMetallicRoughness":{
				"baseColorTexture":{
					"index":0
				},
				"metallicFactor":0,
				"roughnessFactor":0.5
			}
		},
		{
			"doubleSided":true,
			"name":"Material.015",
			"pbrMetallicRoughness":{
				"baseColorTexture":{
					"index":1
				},
				"metallicFactor":0.20000000298023224
			}
		},
		{
			"doubleSided":true,
			"extensions":{
				"KHR_materials_specular":{
					"specularFactor":0
				}
			},
			"name":"Material.003",
			"pbrMetallicRoughness":{
				"baseColorTexture":{
					"index":2
				},
				"metallicFactor":0,
				"roughnessFactor":0.5
			}
		}
	],
	"meshes":[
		{
			"name":"Cylinder.080",
			"primitives":[
				{
					"attributes":{
						"POSITION":0,
						"NORMAL":1,
						"TEXCOORD_0":2
					},
					"indices":3,
					"material":0
				},
				{
					"attributes":{
						"POSITION":4,
						"NORMAL":5,
						"TEXCOORD_0":6
					},
					"indices":7
				}
			]
		},
		{
			"name":"Cube.111",
			"primitives":[
				{
					"attributes":{
						"POSITION":8,
						"NORMAL":9,
						"TEXCOORD_0":10
					},
					"indices":11,
					"material":1
				}
			]
		},
		{
			"name":"Cylinder.026",
			"primitives":[
				{
					"attributes":{
						"POSITION":12,
						"NORMAL":13,
						"TEXCOORD_0":14
					},
					"indices":15,
					"material":0
				},
				{
					"attributes":{
						"POSITION":16,
						"NORMAL":17,
						"TEXCOORD_0":18
					},
					"indices":19,
					"material":2
				}
			]
		}
	],
	"textures":[
		{
			"sampler":0,
			"source":0
		},
		{
			"sampler":0,
			"source":1
		},
		{
			"sampler":0,
			"source":2
		}
	],
	"images":[
		{
			"mimeType":"image/jpeg",
			"name":"japanese_hackberry_bark_diff_4k",
			"uri":"japanese_hackberry_bark_diff_4k.jpg"
		},
		{
			"mimeType":"image/png",
			"name":"forest_ground_04_disp_4k",
			"uri":"forest_ground_04_disp_4k.png"
		},
		{
			"mimeType":"image/jpeg",
			"name":"bark_brown_02_diff_4k",
			"uri":"bark_brown_02_diff_4k.jpg"
		}
	],
	"accessors":[
		{
			"bufferView":0,
			"componentType":5126,
			"count":6771,
			"max":[
				35.99995040893555,
				17.653709411621094,
				15.167709350585938
			],
			"min":[
				-54.16588592529297,
				4.316552639007568,
				-41.25712585449219
			],
			"type":"VEC3"
		},
		{
			"bufferView":1,
			"componentType":5126,
			"count":6771,
			"type":"VEC3"
		},
		{
			"bufferView":2,
			"componentType":5126,
			"count":6771,
			"type":"VEC2"
		},
		{
			"bufferView":3,
			"componentType":5123,
			"count":19041,
			"type":"SCALAR"
		},
		{
			"bufferView":4,
			"componentType":5126,
			"count":6,
			"max":[
				34.54862976074219,
				15.937082290649414,
				-11.664286613464355
			],
			"min":[
				34.3656005859375,
				11.725883483886719,
				-11.664290428161621
			],
			"type":"VEC3"
		},
		{
			"bufferView":5,
			"componentType":5126,
			"count":6,
			"type":"VEC3"
		},
		{
			"bufferView":6,
			"componentType":5126,
			"count":6,
			"type":"VEC2"
		},
		{
			"bufferView":7,
			"componentType":5123,
			"count":6,
			"type":"SCALAR"
		},
		{
			"bufferView":8,
			"componentType":5126,
			"count":4,
			"max":[
				0.913695216178894,
				-0.9690071940422058,
				0.2693636417388916
			],
			"min":[
				-0.9136950969696045,
				-0.9690071940422058,
				-1.5459702014923096
			],
			"type":"VEC3"
		},
		{
			"bufferView":9,
			"componentType":5126,
			"count":4,
			"type":"VEC3"
		},
		{
			"bufferView":10,
			"componentType":5126,
			"count":4,
			"type":"VEC2"
		},
		{
			"bufferView":11,
			"componentType":5123,
			"count":6,
			"type":"SCALAR"
		},
		{
			"bufferView":12,
			"componentType":5126,
			"count":928,
			"max":[
				-32.339473724365234,
				17.653709411621094,
				11.92989730834961
			],
			"min":[
				-33.693660736083984,
				4.316553115844727,
				-21.705120086669922
			],
			"type":"VEC3"
		},
		{
			"bufferView":13,
			"componentType":5126,
			"count":928,
			"type":"VEC3"
		},
		{
			"bufferView":14,
			"componentType":5126,
			"count":928,
			"type":"VEC2"
		},
		{
			"bufferView":15,
			"componentType":5123,
			"count":2604,
			"type":"SCALAR"
		},
		{
			"bufferView":16,
			"componentType":5126,
			"count":2152,
			"max":[
				-32.339473724365234,
				17.653709411621094,
				11.92989730834961
			],
			"min":[
				-33.693660736083984,
				4.316553115844727,
				-21.705120086669922
			],
			"type":"VEC3"
		},
		{
			"bufferView":17,
			"componentType":5126,
			"count":2152,
			"type":"VEC3"
		},
		{
			"bufferView":18,
			"componentType":5126,
			"count":2152,
			"type":"VEC2"
		},
		{
			"bufferView":19,
			"componentType":5123,
			"count":3402,
			"type":"SCALAR"
		}
	],
	"bufferViews":[
		{
			"buffer":0,
			"byteLength":81252,
			"byteOffset":0,
			"target":34962
		},
		{
			"buffer":0,
			"byteLength":81252,
			"byteOffset":81252,
			"target":34962
		},
		{
			"buffer":0,
			"byteLength":54168,
			"byteOffset":162504,
			"target":34962
		},
		{
			"buffer":0,
			"byteLength":38082,
			"byteOffset":216672,
			"target":34963
		},
		{
			"buffer":0,
			"byteLength":72,
			"byteOffset":254756,
			"target":34962
		},
		{
			"buffer":0,
			"byteLength":72,
			"byteOffset":254828,
			"target":34962
		},
		{
			"buffer":0,
			"byteLength":48,
			"byteOffset":254900,
			"target":34962
		},
		{
			"buffer":0,
			"byteLength":12,
			"byteOffset":254948,
			"target":34963
		},
		{
			"buffer":0,
			"byteLength":48,
			"byteOffset":254960,
			"target":34962
		},
		{
			"buffer":0,
			"byteLength":48,
			"byteOffset":255008,
			"target":34962
		},
		{
			"buffer":0,
			"byteLength":32,
			"byteOffset":255056,
			"target":34962
		},
		{
			"buffer":0,
			"byteLength":12,
			"byteOffset":255088,
			"target":34963
		},
		{
			"buffer":0,
			"byteLength":11136,
			"byteOffset":255100,
			"target":34962
		},
		{
			"buffer":0,
			"byteLength":11136,
			"byteOffset":266236,
			"target":34962
		},
		{
			"buffer":0,
			"byteLength":7424,
			"byteOffset":277372,
			"target":34962
		},
		{
			"buffer":0,
			"byteLength":5208,
			"byteOffset":284796,
			"target":34963
		},
		{
			"buffer":0,
			"byteLength":25824,
			"byteOffset":290004,
			"target":34962
		},
		{
			"buffer":0,
			"byteLength":25824,
			"byteOffset":315828,
			"target":34962
		},
		{
			"buffer":0,
			"byteLength":17216,
			"byteOffset":341652,
			"target":34962
		},
		{
			"buffer":0,
			"byteLength":6804,
			"byteOffset":358868,
			"target":34963
		}
	],
	"samplers":[
		{
			"magFilter":9729,
			"minFilter":9987
		}
	],
	"buffers":[
		{
			"byteLength":365672,
			"uri":"CabinInsideWallAndLogEnds.bin"
		}
	]
}
