{
	"asset":{
		"generator":"Khronos glTF Blender I/O v4.1.63",
		"version":"2.0"
	},
	"extensionsUsed":[
		"KHR_materials_specular",
		"KHR_materials_ior"
	],
	"scene":0,
	"scenes":[
		{
			"name":"Scene",
			"nodes":[
				0,
				1,
				2
			]
		}
	],
	"nodes":[
		{
			"mesh":0,
			"name":"Cube"
		},
		{
			"mesh":1,
			"name":"Cube.002",
			"scale":[
				1,
				0.3999999761581421,
				0.19999998807907104
			],
			"translation":[
				-0.7812843322753906,
				1.8000835180282593,
				0
			]
		},
		{
			"mesh":2,
			"name":"Cube.003",
			"scale":[
				1,
				0.3999999761581421,
				0.19999998807907104
			],
			"translation":[
				-0.7812843322753906,
				1.8000835180282593,
				0
			]
		}
	],
	"materials":[
		{
			"doubleSided":true,
			"extensions":{
				"KHR_materials_specular":{
					"specularFactor":0
				},
				"KHR_materials_ior":{
					"ior":1.4500000476837158
				}
			},
			"name":"Handle",
			"pbrMetallicRoughness":{
				"baseColorTexture":{
					"index":0
				},
				"metallicFactor":0,
				"roughnessFactor":0.5
			}
		},
		{
			"doubleSided":true,
			"extensions":{
				"KHR_materials_specular":{
					"specularFactor":0
				},
				"KHR_materials_ior":{
					"ior":1.4500000476837158
				}
			},
			"name":"Blade",
			"pbrMetallicRoughness":{
				"baseColorTexture":{
					"index":1
				},
				"metallicFactor":0,
				"roughnessFactor":0.5
			}
		},
		{
			"doubleSided":true,
			"extensions":{
				"KHR_materials_specular":{
					"specularColorFactor":[
						2.0,
						2.0,
						2.0
					]
				},
				"KHR_materials_ior":{
					"ior":1.4500000476837158
				}
			},
			"name":"BladeTip",
			"pbrMetallicRoughness":{
				"baseColorTexture":{
					"index":2
				},
				"metallicFactor":0.75,
				"roughnessFactor":0.5
			}
		}
	],
	"meshes":[
		{
			"name":"Cube",
			"primitives":[
				{
					"attributes":{
						"POSITION":0,
						"NORMAL":1,
						"TEXCOORD_0":2
					},
					"indices":3,
					"material":0
				}
			]
		},
		{
			"name":"Cube.002",
			"primitives":[
				{
					"attributes":{
						"POSITION":4,
						"NORMAL":5,
						"TEXCOORD_0":6
					},
					"indices":7,
					"material":1
				}
			]
		},
		{
			"name":"Cube.003",
			"primitives":[
				{
					"attributes":{
						"POSITION":8,
						"NORMAL":9,
						"TEXCOORD_0":10
					},
					"indices":11,
					"material":2
				}
			]
		}
	],
	"textures":[
		{
			"sampler":0,
			"source":0
		},
		{
			"sampler":0,
			"source":1
		},
		{
			"sampler":0,
			"source":1
		}
	],
	"images":[
		{
			"mimeType":"image/jpeg",
			"name":"fine_grained_wood_col_4k",
			"uri":"fine_grained_wood_col_4k.jpg"
		},
		{
			"mimeType":"image/png",
			"name":"green_metal_rust_disp_4k",
			"uri":"green_metal_rust_disp_4k.png"
		}
	],
	"accessors":[
		{
			"bufferView":0,
			"componentType":5126,
			"count":2480,
			"max":[
				0.2307131141424179,
				2.404933452606201,
				0.11959981918334961
			],
			"min":[
				-0.7245619297027588,
				-4.862853527069092,
				-0.11959981918334961
			],
			"type":"VEC3"
		},
		{
			"bufferView":1,
			"componentType":5126,
			"count":2480,
			"type":"VEC3"
		},
		{
			"bufferView":2,
			"componentType":5126,
			"count":2480,
			"type":"VEC2"
		},
		{
			"bufferView":3,
			"componentType":5123,
			"count":12672,
			"type":"SCALAR"
		},
		{
			"bufferView":4,
			"componentType":5126,
			"count":612,
			"max":[
				1.0281044244766235,
				1.3279666900634766,
				0.6235269904136658
			],
			"min":[
				-0.8352168798446655,
				-2.2778513431549072,
				-0.623526930809021
			],
			"type":"VEC3"
		},
		{
			"bufferView":5,
			"componentType":5126,
			"count":612,
			"type":"VEC3"
		},
		{
			"bufferView":6,
			"componentType":5126,
			"count":612,
			"type":"VEC2"
		},
		{
			"bufferView":7,
			"componentType":5123,
			"count":2310,
			"type":"SCALAR"
		},
		{
			"bufferView":8,
			"componentType":5126,
			"count":60,
			"max":[
				-0.7480433583259583,
				1.229588270187378,
				0.23382259905338287
			],
			"min":[
				-1.1080793142318726,
				-1.4381117820739746,
				-0.23382259905338287
			],
			"type":"VEC3"
		},
		{
			"bufferView":9,
			"componentType":5126,
			"count":60,
			"type":"VEC3"
		},
		{
			"bufferView":10,
			"componentType":5126,
			"count":60,
			"type":"VEC2"
		},
		{
			"bufferView":11,
			"componentType":5123,
			"count":150,
			"type":"SCALAR"
		}
	],
	"bufferViews":[
		{
			"buffer":0,
			"byteLength":29760,
			"byteOffset":0,
			"target":34962
		},
		{
			"buffer":0,
			"byteLength":29760,
			"byteOffset":29760,
			"target":34962
		},
		{
			"buffer":0,
			"byteLength":19840,
			"byteOffset":59520,
			"target":34962
		},
		{
			"buffer":0,
			"byteLength":25344,
			"byteOffset":79360,
			"target":34963
		},
		{
			"buffer":0,
			"byteLength":7344,
			"byteOffset":104704,
			"target":34962
		},
		{
			"buffer":0,
			"byteLength":7344,
			"byteOffset":112048,
			"target":34962
		},
		{
			"buffer":0,
			"byteLength":4896,
			"byteOffset":119392,
			"target":34962
		},
		{
			"buffer":0,
			"byteLength":4620,
			"byteOffset":124288,
			"target":34963
		},
		{
			"buffer":0,
			"byteLength":720,
			"byteOffset":128908,
			"target":34962
		},
		{
			"buffer":0,
			"byteLength":720,
			"byteOffset":129628,
			"target":34962
		},
		{
			"buffer":0,
			"byteLength":480,
			"byteOffset":130348,
			"target":34962
		},
		{
			"buffer":0,
			"byteLength":300,
			"byteOffset":130828,
			"target":34963
		}
	],
	"samplers":[
		{
			"magFilter":9729,
			"minFilter":9987
		}
	],
	"buffers":[
		{
			"byteLength":131128,
			"uri":"ChoppingAxe.bin"
		}
	]
}
