{
	"asset":{
		"generator":"Khronos glTF Blender I/O v4.1.63",
		"version":"2.0"
	},
	"extensionsUsed":[
		"KHR_materials_specular",
		"KHR_materials_ior"
	],
	"scene":0,
	"scenes":[
		{
			"name":"Scene",
			"nodes":[
				0
			]
		}
	],
	"nodes":[
		{
			"mesh":0,
			"name":"Sphere",
			"translation":[
				0,
				0.10000000149011612,
				0
			]
		}
	],
	"materials":[
		{
			"doubleSided":true,
			"extensions":{
				"KHR_materials_specular":{
					"specularFactor":0
				},
				"KHR_materials_ior":{
					"ior":1.4500000476837158
				}
			},
			"name":"Material",
			"pbrMetallicRoughness":{
				"baseColorTexture":{
					"index":0
				},
				"metallicFactor":0
			}
		}
	],
	"meshes":[
		{
			"name":"Sphere",
			"primitives":[
				{
					"attributes":{
						"POSITION":0,
						"NORMAL":1,
						"TEXCOORD_0":2
					},
					"indices":3,
					"material":0
				}
			]
		}
	],
	"textures":[
		{
			"sampler":0,
			"source":0
		}
	],
	"images":[
		{
			"mimeType":"image/jpeg",
			"name":"coast_sand_01_diff_2k",
			"uri":"coast_sand_01_diff_2k.jpg"
		}
	],
	"accessors":[
		{
			"bufferView":0,
			"componentType":5126,
			"count":35180,
			"max":[
				1.689108967781067,
				0.9843000173568726,
				1.7134766578674316
			],
			"min":[
				-1.612133502960205,
				-0.34750813245773315,
				-1.783966302871704
			],
			"type":"VEC3"
		},
		{
			"bufferView":1,
			"componentType":5126,
			"count":35180,
			"type":"VEC3"
		},
		{
			"bufferView":2,
			"componentType":5126,
			"count":35180,
			"type":"VEC2"
		},
		{
			"bufferView":3,
			"componentType":5123,
			"count":198522,
			"type":"SCALAR"
		}
	],
	"bufferViews":[
		{
			"buffer":0,
			"byteLength":422160,
			"byteOffset":0,
			"target":34962
		},
		{
			"buffer":0,
			"byteLength":422160,
			"byteOffset":422160,
			"target":34962
		},
		{
			"buffer":0,
			"byteLength":281440,
			"byteOffset":844320,
			"target":34962
		},
		{
			"buffer":0,
			"byteLength":397044,
			"byteOffset":1125760,
			"target":34963
		}
	],
	"samplers":[
		{
			"magFilter":9729,
			"minFilter":9987
		}
	],
	"buffers":[
		{
			"byteLength":1522804,
			"uri":"DirtPile.bin"
		}
	]
}
