{
	"asset":{
		"generator":"Khronos glTF Blender I/O v4.1.63",
		"version":"2.0"
	},
	"extensionsUsed":[
		"KHR_materials_specular",
		"KHR_materials_ior"
	],
	"scene":0,
	"scenes":[
		{
			"name":"Scene",
			"nodes":[
				0,
				1,
				2,
				3,
				4,
				5,
				6,
				7,
				8,
				9,
				10,
				11
			]
		}
	],
	"nodes":[
		{
			"mesh":0,
			"name":"WindowPane1",
			"rotation":[
				0,
				0,
				-0.7071068286895752,
				0.7071068286895752
			],
			"scale":[
				1.1416897773742676,
				1,
				2.1299262046813965
			],
			"translation":[
				-3.321087598800659,
				5.89218807220459,
				10.211088180541992
			]
		},
		{
			"mesh":1,
			"name":"Cube",
			"translation":[
				-15.211090087890625,
				21.180952072143555,
				-5.092138290405273
			]
		},
		{
			"mesh":2,
			"name":"DoorknobConnector",
			"rotation":[
				0,
				0,
				-0.7071068286895752,
				0.7071068286895752
			],
			"scale":[
				0.10000002384185791,
				0.30000007152557373,
				0.10000002384185791
			],
			"translation":[
				-3.32108736038208,
				4.011298179626465,
				-1.4335191249847412
			]
		},
		{
			"mesh":3,
			"name":"Walls",
			"rotation":[
				0,
				0.7071068286895752,
				0,
				0.7071068286895752
			],
			"translation":[
				-0.21108779311180115,
				0,
				0.21108780801296234
			]
		},
		{
			"mesh":4,
			"name":"Base.001",
			"rotation":[
				0,
				0.7071068286895752,
				0,
				0.7071068286895752
			],
			"scale":[
				1.5,
				1,
				1
			],
			"translation":[
				-0.21108779311180115,
				0,
				0.21108780801296234
			]
		},
		{
			"mesh":5,
			"name":"Base.002",
			"rotation":[
				0,
				0.7071068286895752,
				0,
				0.7071068286895752
			],
			"scale":[
				1.5,
				1,
				1
			],
			"translation":[
				-9.668530464172363,
				7.560324668884277,
				-5.46090841293335
			]
		},
		{
			"mesh":6,
			"name":"Base.003",
			"rotation":[
				0,
				0.7071068286895752,
				0,
				0.7071068286895752
			],
			"scale":[
				1.5,
				1,
				1
			],
			"translation":[
				-0.21108779311180115,
				0,
				0.21108780801296234
			]
		},
		{
			"mesh":7,
			"name":"DoorknobConnector.004",
			"rotation":[
				0,
				0,
				-0.7071068286895752,
				0.7071068286895752
			],
			"scale":[
				0.10000002384185791,
				0.30000007152557373,
				0.10000002384185791
			],
			"translation":[
				-19.250972747802734,
				6.375180244445801,
				9.531709671020508
			]
		},
		{
			"mesh":8,
			"name":"Base.004",
			"rotation":[
				0,
				0.7071068286895752,
				0,
				0.7071068286895752
			],
			"scale":[
				1.5,
				1,
				1
			],
			"translation":[
				-0.21108779311180115,
				0,
				0.21108780801296234
			]
		},
		{
			"mesh":9,
			"name":"Base.005",
			"rotation":[
				0,
				0.7071068286895752,
				0,
				0.7071068286895752
			],
			"scale":[
				1.5,
				1,
				1
			],
			"translation":[
				-9.668530464172363,
				7.560324668884277,
				-5.46090841293335
			]
		},
		{
			"mesh":10,
			"name":"Attic.001",
			"rotation":[
				0,
				0.7071068286895752,
				0,
				0.7071068286895752
			],
			"scale":[
				1.5,
				1,
				1
			],
			"translation":[
				-17.240476608276367,
				11.758261680603027,
				0.19475889205932617
			]
		},
		{
			"mesh":11,
			"name":"Attic.003",
			"rotation":[
				0,
				0.7071068286895752,
				0,
				0.7071068286895752
			],
			"scale":[
				1.5,
				1,
				1
			],
			"translation":[
				-17.240476608276367,
				11.758261680603027,
				0.19475889205932617
			]
		}
	],
	"materials":[
		{
			"alphaMode":"BLEND",
			"doubleSided":true,
			"name":"DirtyGlass",
			"pbrMetallicRoughness":{
				"baseColorFactor":[
					1,
					1,
					1,
					0.3499999940395355
				],
				"baseColorTexture":{
					"index":0
				},
				"metallicFactor":0,
				"roughnessFactor":0
			}
		},
		{
			"doubleSided":true,
			"extensions":{
				"KHR_materials_specular":{
					"specularFactor":0
				}
			},
			"name":"Roof",
			"pbrMetallicRoughness":{
				"baseColorTexture":{
					"index":1
				},
				"metallicFactor":0
			}
		},
		{
			"doubleSided":true,
			"extensions":{
				"KHR_materials_specular":{
					"specularFactor":0
				}
			},
			"name":"Light_Mats.002",
			"pbrMetallicRoughness":{
				"baseColorTexture":{
					"index":2
				},
				"metallicFactor":0,
				"roughnessFactor":0.5
			}
		},
		{
			"doubleSided":true,
			"emissiveFactor":[
				0.06687834858894348,
				0.11322936043143272,
				0.041358754970133305
			],
			"extensions":{
				"KHR_materials_specular":{
					"specularFactor":0
				}
			},
			"name":"mat",
			"pbrMetallicRoughness":{
				"baseColorTexture":{
					"index":3
				},
				"metallicFactor":0
			}
		},
		{
			"doubleSided":true,
			"extensions":{
				"KHR_materials_specular":{
					"specularFactor":0
				}
			},
			"name":"Mattress.001",
			"pbrMetallicRoughness":{
				"baseColorTexture":{
					"index":4
				},
				"metallicFactor":0
			}
		},
		{
			"doubleSided":true,
			"extensions":{
				"KHR_materials_specular":{
					"specularFactor":0
				}
			},
			"name":"Material.015",
			"pbrMetallicRoughness":{
				"baseColorTexture":{
					"index":5
				},
				"metallicFactor":0
			}
		},
		{
			"doubleSided":true,
			"extensions":{
				"KHR_materials_specular":{
					"specularFactor":0
				},
				"KHR_materials_ior":{
					"ior":1.399999976158142
				}
			},
			"name":"Material.005",
			"pbrMetallicRoughness":{
				"baseColorTexture":{
					"index":6
				},
				"metallicFactor":0,
				"roughnessFactor":0.5
			}
		},
		{
			"doubleSided":true,
			"extensions":{
				"KHR_materials_specular":{
					"specularFactor":0
				},
				"KHR_materials_ior":{
					"ior":1.399999976158142
				}
			},
			"name":"Bathroom",
			"pbrMetallicRoughness":{
				"baseColorTexture":{
					"index":7
				},
				"metallicFactor":0,
				"roughnessFactor":0.5
			}
		}
	],
	"meshes":[
		{
			"name":"Plane.1926",
			"primitives":[
				{
					"attributes":{
						"POSITION":0,
						"NORMAL":1,
						"TEXCOORD_0":2
					},
					"indices":3,
					"material":0
				}
			]
		},
		{
			"name":"Cube.018",
			"primitives":[
				{
					"attributes":{
						"POSITION":4,
						"NORMAL":5,
						"TEXCOORD_0":6
					},
					"indices":7,
					"material":1
				}
			]
		},
		{
			"name":"Cylinder",
			"primitives":[
				{
					"attributes":{
						"POSITION":8,
						"NORMAL":9,
						"TEXCOORD_0":10
					},
					"indices":11,
					"material":2
				}
			]
		},
		{
			"name":"Cube.003",
			"primitives":[
				{
					"attributes":{
						"POSITION":12,
						"NORMAL":13,
						"TEXCOORD_0":14
					},
					"indices":15,
					"material":3
				}
			]
		},
		{
			"name":"Cube.038",
			"primitives":[
				{
					"attributes":{
						"POSITION":16,
						"NORMAL":17,
						"TEXCOORD_0":18
					},
					"indices":19,
					"material":4
				}
			]
		},
		{
			"name":"Cube.039",
			"primitives":[
				{
					"attributes":{
						"POSITION":20,
						"NORMAL":21,
						"TEXCOORD_0":22
					},
					"indices":23,
					"material":5
				}
			]
		},
		{
			"name":"Cube.040",
			"primitives":[
				{
					"attributes":{
						"POSITION":24,
						"NORMAL":25,
						"TEXCOORD_0":26
					},
					"indices":27,
					"material":6
				}
			]
		},
		{
			"name":"Cylinder.007",
			"primitives":[
				{
					"attributes":{
						"POSITION":28,
						"NORMAL":29,
						"TEXCOORD_0":30
					},
					"indices":31,
					"material":5
				}
			]
		},
		{
			"name":"Cube.001",
			"primitives":[
				{
					"attributes":{
						"POSITION":32,
						"NORMAL":33,
						"TEXCOORD_0":34
					},
					"indices":35,
					"material":7
				}
			]
		},
		{
			"name":"Cube.002",
			"primitives":[
				{
					"attributes":{
						"POSITION":36,
						"NORMAL":37,
						"TEXCOORD_0":38
					},
					"indices":39,
					"material":5
				}
			]
		},
		{
			"name":"Cube.007",
			"primitives":[
				{
					"attributes":{
						"POSITION":40,
						"NORMAL":41,
						"TEXCOORD_0":42
					},
					"indices":43,
					"material":6
				}
			]
		},
		{
			"name":"Cube.009",
			"primitives":[
				{
					"attributes":{
						"POSITION":44,
						"NORMAL":45,
						"TEXCOORD_0":46
					},
					"indices":47,
					"material":5
				}
			]
		}
	],
	"textures":[
		{
			"sampler":0,
			"source":0
		},
		{
			"sampler":0,
			"source":1
		},
		{
			"sampler":0,
			"source":2
		},
		{
			"sampler":0,
			"source":3
		},
		{
			"sampler":0,
			"source":4
		},
		{
			"sampler":0,
			"source":5
		},
		{
			"sampler":0,
			"source":3
		},
		{
			"sampler":0,
			"source":6
		}
	],
	"images":[
		{
			"mimeType":"image/jpeg",
			"name":"rusty_metal_sheet_diff_4k",
			"uri":"rusty_metal_sheet_diff_4k.jpg"
		},
		{
			"mimeType":"image/jpeg",
			"name":"rust_coarse_01_diff_4k",
			"uri":"rust_coarse_01_diff_4k.jpg"
		},
		{
			"mimeType":"image/png",
			"name":"RammedEarth006_ROUGHNESS_2K_METALNESS",
			"uri":"RammedEarth006_ROUGHNESS_2K_METALNESS.png"
		},
		{
			"mimeType":"image/jpeg",
			"name":"fine_grained_wood_col_4k",
			"uri":"fine_grained_wood_col_4k.jpg"
		},
		{
			"mimeType":"image/jpeg",
			"name":"aerial_grass_rock_rough_4k",
			"uri":"aerial_grass_rock_rough_4k.jpg"
		},
		{
			"mimeType":"image/png",
			"name":"forest_ground_04_rough_4k",
			"uri":"forest_ground_04_rough_4k.png"
		},
		{
			"mimeType":"image/jpeg",
			"name":"granite_tile_diff_4k",
			"uri":"granite_tile_diff_4k.jpg"
		}
	],
	"accessors":[
		{
			"bufferView":0,
			"componentType":5126,
			"count":28,
			"max":[
				1.758897066116333,
				1.9039566723222379e-07,
				2.5799999237060547
			],
			"min":[
				-8.518277168273926,
				-19.885211944580078,
				-13.991094589233398
			],
			"type":"VEC3"
		},
		{
			"bufferView":1,
			"componentType":5126,
			"count":28,
			"type":"VEC3"
		},
		{
			"bufferView":2,
			"componentType":5126,
			"count":28,
			"type":"VEC2"
		},
		{
			"bufferView":3,
			"componentType":5123,
			"count":42,
			"type":"SCALAR"
		},
		{
			"bufferView":4,
			"componentType":5126,
			"count":105453,
			"max":[
				19.69809913635254,
				0.039544105529785156,
				25.853225708007812
			],
			"min":[
				-13.133481979370117,
				-13.250484466552734,
				-15.24677562713623
			],
			"type":"VEC3"
		},
		{
			"bufferView":5,
			"componentType":5126,
			"count":105453,
			"type":"VEC3"
		},
		{
			"bufferView":6,
			"componentType":5126,
			"count":105453,
			"type":"VEC2"
		},
		{
			"bufferView":7,
			"componentType":5125,
			"count":207768,
			"type":"SCALAR"
		},
		{
			"bufferView":8,
			"componentType":5126,
			"count":2384,
			"max":[
				38.43927001953125,
				26.026981353759766,
				221.94602966308594
			],
			"min":[
				-168.80032348632812,
				-82.9399185180664,
				-189.0539093017578
			],
			"type":"VEC3"
		},
		{
			"bufferView":9,
			"componentType":5126,
			"count":2384,
			"type":"VEC3"
		},
		{
			"bufferView":10,
			"componentType":5126,
			"count":2384,
			"type":"VEC2"
		},
		{
			"bufferView":11,
			"componentType":5123,
			"count":4446,
			"type":"SCALAR"
		},
		{
			"bufferView":12,
			"componentType":5126,
			"count":5202,
			"max":[
				19.998497009277344,
				20.734437942504883,
				4.238158702850342
			],
			"min":[
				-19.998497009277344,
				0.4967203140258789,
				-27.180599212646484
			],
			"type":"VEC3"
		},
		{
			"bufferView":13,
			"componentType":5126,
			"count":5202,
			"type":"VEC3"
		},
		{
			"bufferView":14,
			"componentType":5126,
			"count":5202,
			"type":"VEC2"
		},
		{
			"bufferView":15,
			"componentType":5123,
			"count":8622,
			"type":"SCALAR"
		},
		{
			"bufferView":16,
			"componentType":5126,
			"count":212,
			"max":[
				13.200000762939453,
				0.4967251121997833,
				7.250000953674316
			],
			"min":[
				-13.200000762939453,
				-1.0032768249511719,
				-27
			],
			"type":"VEC3"
		},
		{
			"bufferView":17,
			"componentType":5126,
			"count":212,
			"type":"VEC3"
		},
		{
			"bufferView":18,
			"componentType":5126,
			"count":212,
			"type":"VEC2"
		},
		{
			"bufferView":19,
			"componentType":5123,
			"count":534,
			"type":"SCALAR"
		},
		{
			"bufferView":20,
			"componentType":5126,
			"count":73,
			"max":[
				9.418671607971191,
				3.2199559211730957,
				6.52813720703125
			],
			"min":[
				-16.94834327697754,
				-7.063601016998291,
				-18.245336532592773
			],
			"type":"VEC3"
		},
		{
			"bufferView":21,
			"componentType":5126,
			"count":73,
			"type":"VEC3"
		},
		{
			"bufferView":22,
			"componentType":5126,
			"count":73,
			"type":"VEC2"
		},
		{
			"bufferView":23,
			"componentType":5123,
			"count":189,
			"type":"SCALAR"
		},
		{
			"bufferView":24,
			"componentType":5126,
			"count":10,
			"max":[
				13.124480247497559,
				0.49672508239746094,
				-2.999999523162842
			],
			"min":[
				-13.166667938232422,
				0.49672505259513855,
				-27
			],
			"type":"VEC3"
		},
		{
			"bufferView":25,
			"componentType":5126,
			"count":10,
			"type":"VEC3"
		},
		{
			"bufferView":26,
			"componentType":5126,
			"count":10,
			"type":"VEC2"
		},
		{
			"bufferView":27,
			"componentType":5123,
			"count":27,
			"type":"SCALAR"
		},
		{
			"bufferView":28,
			"componentType":5126,
			"count":294,
			"max":[
				62.078102111816406,
				13.466279029846191,
				104.33992004394531
			],
			"min":[
				-43.96206283569336,
				-26.367050170898438,
				-290.7522888183594
			],
			"type":"VEC3"
		},
		{
			"bufferView":29,
			"componentType":5126,
			"count":294,
			"type":"VEC3"
		},
		{
			"bufferView":30,
			"componentType":5126,
			"count":294,
			"type":"VEC2"
		},
		{
			"bufferView":31,
			"componentType":5123,
			"count":612,
			"type":"SCALAR"
		},
		{
			"bufferView":32,
			"componentType":5126,
			"count":4,
			"max":[
				-4.611543655395508,
				0.49672508239746094,
				-15
			],
			"min":[
				-13.166667938232422,
				0.49672311544418335,
				-27
			],
			"type":"VEC3"
		},
		{
			"bufferView":33,
			"componentType":5126,
			"count":4,
			"type":"VEC3"
		},
		{
			"bufferView":34,
			"componentType":5126,
			"count":4,
			"type":"VEC2"
		},
		{
			"bufferView":35,
			"componentType":5123,
			"count":6,
			"type":"SCALAR"
		},
		{
			"bufferView":36,
			"componentType":5126,
			"count":23,
			"max":[
				9.343149185180664,
				13.23497200012207,
				6.532597064971924
			],
			"min":[
				-16.947998046875,
				-7.063601016998291,
				-17.4925594329834
			],
			"type":"VEC3"
		},
		{
			"bufferView":37,
			"componentType":5126,
			"count":23,
			"type":"VEC3"
		},
		{
			"bufferView":38,
			"componentType":5126,
			"count":23,
			"type":"VEC2"
		},
		{
			"bufferView":39,
			"componentType":5123,
			"count":63,
			"type":"SCALAR"
		},
		{
			"bufferView":40,
			"componentType":5126,
			"count":292,
			"max":[
				13.189117431640625,
				8.82196044921875,
				14.115235328674316
			],
			"min":[
				-13.210887908935547,
				-1.040574312210083,
				-10.668237686157227
			],
			"type":"VEC3"
		},
		{
			"bufferView":41,
			"componentType":5126,
			"count":292,
			"type":"VEC3"
		},
		{
			"bufferView":42,
			"componentType":5126,
			"count":292,
			"type":"VEC2"
		},
		{
			"bufferView":43,
			"componentType":5123,
			"count":618,
			"type":"SCALAR"
		},
		{
			"bufferView":44,
			"componentType":5126,
			"count":19,
			"max":[
				13.188000679016113,
				-1.018878698348999,
				14.10523509979248
			],
			"min":[
				-13.178668975830078,
				-1.0188825130462646,
				-10.668237686157227
			],
			"type":"VEC3"
		},
		{
			"bufferView":45,
			"componentType":5126,
			"count":19,
			"type":"VEC3"
		},
		{
			"bufferView":46,
			"componentType":5126,
			"count":19,
			"type":"VEC2"
		},
		{
			"bufferView":47,
			"componentType":5123,
			"count":57,
			"type":"SCALAR"
		}
	],
	"bufferViews":[
		{
			"buffer":0,
			"byteLength":336,
			"byteOffset":0,
			"target":34962
		},
		{
			"buffer":0,
			"byteLength":336,
			"byteOffset":336,
			"target":34962
		},
		{
			"buffer":0,
			"byteLength":224,
			"byteOffset":672,
			"target":34962
		},
		{
			"buffer":0,
			"byteLength":84,
			"byteOffset":896,
			"target":34963
		},
		{
			"buffer":0,
			"byteLength":1265436,
			"byteOffset":980,
			"target":34962
		},
		{
			"buffer":0,
			"byteLength":1265436,
			"byteOffset":1266416,
			"target":34962
		},
		{
			"buffer":0,
			"byteLength":843624,
			"byteOffset":2531852,
			"target":34962
		},
		{
			"buffer":0,
			"byteLength":831072,
			"byteOffset":3375476,
			"target":34963
		},
		{
			"buffer":0,
			"byteLength":28608,
			"byteOffset":4206548,
			"target":34962
		},
		{
			"buffer":0,
			"byteLength":28608,
			"byteOffset":4235156,
			"target":34962
		},
		{
			"buffer":0,
			"byteLength":19072,
			"byteOffset":4263764,
			"target":34962
		},
		{
			"buffer":0,
			"byteLength":8892,
			"byteOffset":4282836,
			"target":34963
		},
		{
			"buffer":0,
			"byteLength":62424,
			"byteOffset":4291728,
			"target":34962
		},
		{
			"buffer":0,
			"byteLength":62424,
			"byteOffset":4354152,
			"target":34962
		},
		{
			"buffer":0,
			"byteLength":41616,
			"byteOffset":4416576,
			"target":34962
		},
		{
			"buffer":0,
			"byteLength":17244,
			"byteOffset":4458192,
			"target":34963
		},
		{
			"buffer":0,
			"byteLength":2544,
			"byteOffset":4475436,
			"target":34962
		},
		{
			"buffer":0,
			"byteLength":2544,
			"byteOffset":4477980,
			"target":34962
		},
		{
			"buffer":0,
			"byteLength":1696,
			"byteOffset":4480524,
			"target":34962
		},
		{
			"buffer":0,
			"byteLength":1068,
			"byteOffset":4482220,
			"target":34963
		},
		{
			"buffer":0,
			"byteLength":876,
			"byteOffset":4483288,
			"target":34962
		},
		{
			"buffer":0,
			"byteLength":876,
			"byteOffset":4484164,
			"target":34962
		},
		{
			"buffer":0,
			"byteLength":584,
			"byteOffset":4485040,
			"target":34962
		},
		{
			"buffer":0,
			"byteLength":378,
			"byteOffset":4485624,
			"target":34963
		},
		{
			"buffer":0,
			"byteLength":120,
			"byteOffset":4486004,
			"target":34962
		},
		{
			"buffer":0,
			"byteLength":120,
			"byteOffset":4486124,
			"target":34962
		},
		{
			"buffer":0,
			"byteLength":80,
			"byteOffset":4486244,
			"target":34962
		},
		{
			"buffer":0,
			"byteLength":54,
			"byteOffset":4486324,
			"target":34963
		},
		{
			"buffer":0,
			"byteLength":3528,
			"byteOffset":4486380,
			"target":34962
		},
		{
			"buffer":0,
			"byteLength":3528,
			"byteOffset":4489908,
			"target":34962
		},
		{
			"buffer":0,
			"byteLength":2352,
			"byteOffset":4493436,
			"target":34962
		},
		{
			"buffer":0,
			"byteLength":1224,
			"byteOffset":4495788,
			"target":34963
		},
		{
			"buffer":0,
			"byteLength":48,
			"byteOffset":4497012,
			"target":34962
		},
		{
			"buffer":0,
			"byteLength":48,
			"byteOffset":4497060,
			"target":34962
		},
		{
			"buffer":0,
			"byteLength":32,
			"byteOffset":4497108,
			"target":34962
		},
		{
			"buffer":0,
			"byteLength":12,
			"byteOffset":4497140,
			"target":34963
		},
		{
			"buffer":0,
			"byteLength":276,
			"byteOffset":4497152,
			"target":34962
		},
		{
			"buffer":0,
			"byteLength":276,
			"byteOffset":4497428,
			"target":34962
		},
		{
			"buffer":0,
			"byteLength":184,
			"byteOffset":4497704,
			"target":34962
		},
		{
			"buffer":0,
			"byteLength":126,
			"byteOffset":4497888,
			"target":34963
		},
		{
			"buffer":0,
			"byteLength":3504,
			"byteOffset":4498016,
			"target":34962
		},
		{
			"buffer":0,
			"byteLength":3504,
			"byteOffset":4501520,
			"target":34962
		},
		{
			"buffer":0,
			"byteLength":2336,
			"byteOffset":4505024,
			"target":34962
		},
		{
			"buffer":0,
			"byteLength":1236,
			"byteOffset":4507360,
			"target":34963
		},
		{
			"buffer":0,
			"byteLength":228,
			"byteOffset":4508596,
			"target":34962
		},
		{
			"buffer":0,
			"byteLength":228,
			"byteOffset":4508824,
			"target":34962
		},
		{
			"buffer":0,
			"byteLength":152,
			"byteOffset":4509052,
			"target":34962
		},
		{
			"buffer":0,
			"byteLength":114,
			"byteOffset":4509204,
			"target":34963
		}
	],
	"samplers":[
		{
			"magFilter":9729,
			"minFilter":9987
		}
	],
	"buffers":[
		{
			"byteLength":4509320,
			"uri":"House.bin"
		}
	]
}
