{
	"asset":{
		"generator":"Khronos glTF Blender I/O v4.1.63",
		"version":"2.0"
	},
	"extensionsUsed":[
		"KHR_materials_specular"
	],
	"scene":0,
	"scenes":[
		{
			"name":"Scene",
			"nodes":[
				0,
				1,
				2
			]
		}
	],
	"nodes":[
		{
			"mesh":0,
			"name":"Frings.001",
			"scale":[
				0.25,
				0.25,
				0.25
			],
			"translation":[
				-0.002443412085995078,
				-8.995444297790527,
				-0.05889703333377838
			]
		},
		{
			"mesh":1,
			"name":"Frings.002",
			"scale":[
				0.25,
				0.25,
				0.25
			],
			"translation":[
				-0.002443412085995078,
				-8.995444297790527,
				-0.05889703333377838
			]
		},
		{
			"mesh":2,
			"name":"Frings.003",
			"scale":[
				0.25,
				0.25,
				0.25
			],
			"translation":[
				-0.002443412085995078,
				-8.995444297790527,
				-0.05889703333377838
			]
		}
	],
	"materials":[
		{
			"doubleSided":true,
			"extensions":{
				"KHR_materials_specular":{
					"specularFactor":0
				}
			},
			"name":"Wood",
			"pbrMetallicRoughness":{
				"baseColorTexture":{
					"index":0
				},
				"metallicFactor":0,
				"roughnessFactor":0.5
			}
		},
		{
			"doubleSided":true,
			"extensions":{
				"KHR_materials_specular":{
					"specularFactor":0
				}
			},
			"name":"Material",
			"pbrMetallicRoughness":{
				"baseColorTexture":{
					"index":1
				},
				"metallicFactor":0.5,
				"roughnessFactor":0.5
			}
		},
		{
			"doubleSided":true,
			"extensions":{
				"KHR_materials_specular":{
					"specularFactor":0
				}
			},
			"name":"Material.001",
			"pbrMetallicRoughness":{
				"baseColorTexture":{
					"index":2
				},
				"metallicFactor":0,
				"roughnessFactor":0.5
			}
		}
	],
	"meshes":[
		{
			"name":"Cylinder.007",
			"primitives":[
				{
					"attributes":{
						"POSITION":0,
						"NORMAL":1,
						"TEXCOORD_0":2
					},
					"indices":3,
					"material":0
				}
			]
		},
		{
			"name":"Cylinder.001",
			"primitives":[
				{
					"attributes":{
						"POSITION":4,
						"NORMAL":5,
						"TEXCOORD_0":6
					},
					"indices":7,
					"material":1
				}
			]
		},
		{
			"name":"Cylinder.002",
			"primitives":[
				{
					"attributes":{
						"POSITION":8,
						"NORMAL":9,
						"TEXCOORD_0":10
					},
					"indices":11,
					"material":2
				}
			]
		}
	],
	"textures":[
		{
			"sampler":0,
			"source":0
		},
		{
			"sampler":0,
			"source":1
		},
		{
			"sampler":0,
			"source":2
		}
	],
	"images":[
		{
			"mimeType":"image/jpeg",
			"name":"fine_grained_wood_col_4k",
			"uri":"fine_grained_wood_col_4k.jpg"
		},
		{
			"mimeType":"image/jpeg",
			"name":"green_metal_rust_rough_4k",
			"uri":"green_metal_rust_rough_4k.jpg"
		},
		{
			"mimeType":"image/jpeg",
			"name":"ground_grey_diff_4k",
			"uri":"ground_grey_diff_4k.jpg"
		}
	],
	"accessors":[
		{
			"bufferView":0,
			"componentType":5126,
			"count":72,
			"max":[
				1.1347736120224,
				85.98178100585938,
				1.3605880737304688
			],
			"min":[
				-1.1152263879776,
				2.9151077270507812,
				-0.8894118666648865
			],
			"type":"VEC3"
		},
		{
			"bufferView":1,
			"componentType":5126,
			"count":72,
			"type":"VEC3"
		},
		{
			"bufferView":2,
			"componentType":5126,
			"count":72,
			"type":"VEC2"
		},
		{
			"bufferView":3,
			"componentType":5123,
			"count":192,
			"type":"SCALAR"
		},
		{
			"bufferView":4,
			"componentType":5126,
			"count":8373,
			"max":[
				11.383136749267578,
				7.284937858581543,
				1.4395297765731812
			],
			"min":[
				-11.417083740234375,
				-39.97304916381836,
				-3.8489997386932373
			],
			"type":"VEC3"
		},
		{
			"bufferView":5,
			"componentType":5126,
			"count":8373,
			"type":"VEC3"
		},
		{
			"bufferView":6,
			"componentType":5126,
			"count":8373,
			"type":"VEC2"
		},
		{
			"bufferView":7,
			"componentType":5123,
			"count":36444,
			"type":"SCALAR"
		},
		{
			"bufferView":8,
			"componentType":5126,
			"count":537,
			"max":[
				1.127568244934082,
				96.66246795654297,
				1.3533825874328613
			],
			"min":[
				-1.1080207824707031,
				85.9817886352539,
				-0.8822064995765686
			],
			"type":"VEC3"
		},
		{
			"bufferView":9,
			"componentType":5126,
			"count":537,
			"type":"VEC3"
		},
		{
			"bufferView":10,
			"componentType":5126,
			"count":537,
			"type":"VEC2"
		},
		{
			"bufferView":11,
			"componentType":5123,
			"count":2496,
			"type":"SCALAR"
		}
	],
	"bufferViews":[
		{
			"buffer":0,
			"byteLength":864,
			"byteOffset":0,
			"target":34962
		},
		{
			"buffer":0,
			"byteLength":864,
			"byteOffset":864,
			"target":34962
		},
		{
			"buffer":0,
			"byteLength":576,
			"byteOffset":1728,
			"target":34962
		},
		{
			"buffer":0,
			"byteLength":384,
			"byteOffset":2304,
			"target":34963
		},
		{
			"buffer":0,
			"byteLength":100476,
			"byteOffset":2688,
			"target":34962
		},
		{
			"buffer":0,
			"byteLength":100476,
			"byteOffset":103164,
			"target":34962
		},
		{
			"buffer":0,
			"byteLength":66984,
			"byteOffset":203640,
			"target":34962
		},
		{
			"buffer":0,
			"byteLength":72888,
			"byteOffset":270624,
			"target":34963
		},
		{
			"buffer":0,
			"byteLength":6444,
			"byteOffset":343512,
			"target":34962
		},
		{
			"buffer":0,
			"byteLength":6444,
			"byteOffset":349956,
			"target":34962
		},
		{
			"buffer":0,
			"byteLength":4296,
			"byteOffset":356400,
			"target":34962
		},
		{
			"buffer":0,
			"byteLength":4992,
			"byteOffset":360696,
			"target":34963
		}
	],
	"samplers":[
		{
			"magFilter":9729,
			"minFilter":9987
		}
	],
	"buffers":[
		{
			"byteLength":365688,
			"uri":"Pitchfork.bin"
		}
	]
}
