{
	"asset":{
		"generator":"Khronos glTF Blender I/O v4.1.63",
		"version":"2.0"
	},
	"extensionsUsed":[
		"KHR_materials_specular",
		"KHR_materials_ior"
	],
	"scene":0,
	"scenes":[
		{
			"name":"Scene",
			"nodes":[
				0,
				1
			]
		}
	],
	"nodes":[
		{
			"mesh":0,
			"name":"Cube.009",
			"scale":[
				0.870468020439148,
				0.870468020439148,
				8.704680442810059
			]
		},
		{
			"mesh":1,
			"name":"Cylinder",
			"scale":[
				0.10362517088651657,
				0.10362517088651657,
				0.10362517088651657
			],
			"translation":[
				-0.38587379455566406,
				0.4530912935733795,
				0.0003910064697265625
			]
		}
	],
	"materials":[
		{
			"doubleSided":true,
			"extensions":{
				"KHR_materials_specular":{
					"specularFactor":0
				},
				"KHR_materials_ior":{
					"ior":1.4500000476837158
				}
			},
			"name":"Material.001",
			"pbrMetallicRoughness":{
				"baseColorTexture":{
					"index":0
				},
				"metallicFactor":0
			}
		},
		{
			"doubleSided":true,
			"extensions":{
				"KHR_materials_specular":{
					"specularFactor":0
				},
				"KHR_materials_ior":{
					"ior":1.4500000476837158
				}
			},
			"name":"Material.002",
			"pbrMetallicRoughness":{
				"baseColorTexture":{
					"index":1
				},
				"metallicFactor":0
			}
		}
	],
	"meshes":[
		{
			"name":"Cube.010",
			"primitives":[
				{
					"attributes":{
						"POSITION":0,
						"NORMAL":1,
						"TEXCOORD_0":2
					},
					"indices":3,
					"material":0
				}
			]
		},
		{
			"name":"Cylinder.001",
			"primitives":[
				{
					"attributes":{
						"POSITION":4,
						"NORMAL":5,
						"TEXCOORD_0":6
					},
					"indices":7,
					"material":1
				}
			]
		}
	],
	"textures":[
		{
			"sampler":0,
			"source":0
		},
		{
			"sampler":0,
			"source":0
		}
	],
	"images":[
		{
			"mimeType":"image/jpeg",
			"name":"plywood_diff_4k",
			"uri":"plywood_diff_4k.jpg"
		}
	],
	"accessors":[
		{
			"bufferView":0,
			"componentType":5126,
			"count":4800,
			"max":[
				10,
				2.5,
				0.8999999761581421
			],
			"min":[
				-10,
				-2.5,
				-0.8999999761581421
			],
			"type":"VEC3"
		},
		{
			"bufferView":1,
			"componentType":5126,
			"count":4800,
			"type":"VEC3"
		},
		{
			"bufferView":2,
			"componentType":5126,
			"count":4800,
			"type":"VEC2"
		},
		{
			"bufferView":3,
			"componentType":5123,
			"count":8400,
			"type":"SCALAR"
		},
		{
			"bufferView":4,
			"componentType":5126,
			"count":147292,
			"max":[
				91.0330581665039,
				20.842811584472656,
				59.186912536621094
			],
			"min":[
				-83.6717758178711,
				-32.08817672729492,
				-59.1944580078125
			],
			"type":"VEC3"
		},
		{
			"bufferView":5,
			"componentType":5126,
			"count":147292,
			"type":"VEC3"
		},
		{
			"bufferView":6,
			"componentType":5126,
			"count":147292,
			"type":"VEC2"
		},
		{
			"bufferView":7,
			"componentType":5125,
			"count":883200,
			"type":"SCALAR"
		}
	],
	"bufferViews":[
		{
			"buffer":0,
			"byteLength":57600,
			"byteOffset":0,
			"target":34962
		},
		{
			"buffer":0,
			"byteLength":57600,
			"byteOffset":57600,
			"target":34962
		},
		{
			"buffer":0,
			"byteLength":38400,
			"byteOffset":115200,
			"target":34962
		},
		{
			"buffer":0,
			"byteLength":16800,
			"byteOffset":153600,
			"target":34963
		},
		{
			"buffer":0,
			"byteLength":1767504,
			"byteOffset":170400,
			"target":34962
		},
		{
			"buffer":0,
			"byteLength":1767504,
			"byteOffset":1937904,
			"target":34962
		},
		{
			"buffer":0,
			"byteLength":1178336,
			"byteOffset":3705408,
			"target":34962
		},
		{
			"buffer":0,
			"byteLength":3532800,
			"byteOffset":4883744,
			"target":34963
		}
	],
	"samplers":[
		{
			"magFilter":9729,
			"minFilter":9987
		}
	],
	"buffers":[
		{
			"byteLength":8416544,
			"uri":"PlankStack.bin"
		}
	]
}
