{
	"asset":{
		"generator":"Khronos glTF Blender I/O v4.1.63",
		"version":"2.0"
	},
	"extensionsUsed":[
		"KHR_materials_specular"
	],
	"scene":0,
	"scenes":[
		{
			"name":"Scene",
			"nodes":[
				0,
				1,
				2,
				3,
				4,
				5,
				6,
				7,
				8,
				9,
				10,
				11
			]
		}
	],
	"nodes":[
		{
			"mesh":0,
			"name":"Cube.024",
			"scale":[
				3.75,
				1,
				3.5
			],
			"translation":[
				-0.4565351605415344,
				4.014139652252197,
				1.7915204763412476
			]
		},
		{
			"mesh":1,
			"name":"Cube.026",
			"scale":[
				3.75,
				1,
				3.5
			],
			"translation":[
				0.9999996423721313,
				3.0839483737945557,
				3.325007200241089
			]
		},
		{
			"mesh":2,
			"name":"Cube",
			"translation":[
				0.9999995231628418,
				3.0839474201202393,
				3.324998378753662
			]
		},
		{
			"mesh":3,
			"name":"Cube.001",
			"translation":[
				-1.90625,
				4.689573287963867,
				3.3249998092651367
			]
		},
		{
			"mesh":4,
			"name":"Plane",
			"rotation":[
				0.7071068286895752,
				0,
				0,
				0.7071068286895752
			],
			"translation":[
				-1.9062504768371582,
				4.558322906494141,
				3.3249998092651367
			]
		},
		{
			"mesh":5,
			"name":"Cube.002",
			"translation":[
				-1.9062504768371582,
				4.558322906494141,
				3.3249998092651367
			]
		},
		{
			"mesh":6,
			"name":"Cube.003",
			"translation":[
				2.145699977874756,
				5.470822334289551,
				3.499999523162842
			]
		},
		{
			"mesh":7,
			"name":"Cube.004",
			"translation":[
				2.145699977874756,
				0.7833218574523926,
				3.499999523162842
			]
		},
		{
			"mesh":8,
			"name":"Cube.006",
			"scale":[
				3.75,
				1,
				3.5
			],
			"translation":[
				0,
				6.694781303405762,
				0
			]
		},
		{
			"mesh":9,
			"name":"Cube.007",
			"scale":[
				3.75,
				1.0499999523162842,
				3.5
			],
			"translation":[
				0,
				7.6947808265686035,
				0
			]
		},
		{
			"mesh":10,
			"name":"Cube.008",
			"translation":[
				2.145699977874756,
				5.470822334289551,
				3.499999523162842
			]
		},
		{
			"mesh":11,
			"name":"Cube.009",
			"translation":[
				2.145699977874756,
				0.7833218574523926,
				3.499999523162842
			]
		}
	],
	"materials":[
		{
			"doubleSided":true,
			"extensions":{
				"KHR_materials_specular":{
					"specularFactor":0
				}
			},
			"name":"PlyWood",
			"pbrMetallicRoughness":{
				"baseColorTexture":{
					"index":0
				},
				"metallicFactor":0
			}
		},
		{
			"doubleSided":true,
			"name":"BlackWater",
			"pbrMetallicRoughness":{
				"metallicRoughnessTexture":{
					"index":1
				}
			}
		},
		{
			"doubleSided":true,
			"extensions":{
				"KHR_materials_specular":{
					"specularColorFactor":[
						0.21401596069335938,
						0.21401596069335938,
						0.21401596069335938
					]
				}
			},
			"name":"UsedMetal",
			"pbrMetallicRoughness":{
				"baseColorTexture":{
					"index":2
				},
				"roughnessFactor":0.5
			}
		},
		{
			"alphaMode":"BLEND",
			"doubleSided":true,
			"name":"DirtyGlass",
			"pbrMetallicRoughness":{
				"baseColorFactor":[
					1,
					1,
					1,
					0.3499999940395355
				],
				"baseColorTexture":{
					"index":3
				},
				"metallicFactor":0,
				"roughnessFactor":0
			}
		},
		{
			"doubleSided":true,
			"extensions":{
				"KHR_materials_specular":{
					"specularFactor":0
				}
			},
			"name":"PlyWood.001",
			"pbrMetallicRoughness":{
				"baseColorTexture":{
					"index":4
				},
				"metallicFactor":0
			}
		}
	],
	"meshes":[
		{
			"name":"Cube.023",
			"primitives":[
				{
					"attributes":{
						"POSITION":0,
						"NORMAL":1,
						"TEXCOORD_0":2
					},
					"indices":3,
					"material":0
				},
				{
					"attributes":{
						"POSITION":4,
						"NORMAL":5,
						"TEXCOORD_0":6
					},
					"indices":7,
					"material":0
				}
			]
		},
		{
			"name":"Cube.024",
			"primitives":[
				{
					"attributes":{
						"POSITION":8,
						"NORMAL":9,
						"TEXCOORD_0":10
					},
					"indices":11,
					"material":0
				},
				{
					"attributes":{
						"POSITION":12,
						"NORMAL":13,
						"TEXCOORD_0":14
					},
					"indices":15,
					"material":1
				},
				{
					"attributes":{
						"POSITION":16,
						"NORMAL":17,
						"TEXCOORD_0":18
					},
					"indices":19,
					"material":2
				}
			]
		},
		{
			"name":"Cube.033",
			"primitives":[
				{
					"attributes":{
						"POSITION":20,
						"NORMAL":21,
						"TEXCOORD_0":22
					},
					"indices":23,
					"material":0
				}
			]
		},
		{
			"name":"Cube.034",
			"primitives":[
				{
					"attributes":{
						"POSITION":24,
						"NORMAL":25,
						"TEXCOORD_0":26
					},
					"indices":27,
					"material":0
				}
			]
		},
		{
			"name":"Plane",
			"primitives":[
				{
					"attributes":{
						"POSITION":28,
						"NORMAL":29,
						"TEXCOORD_0":30
					},
					"indices":31,
					"material":3
				}
			]
		},
		{
			"name":"Cube.035",
			"primitives":[
				{
					"attributes":{
						"POSITION":32,
						"NORMAL":33,
						"TEXCOORD_0":34
					},
					"indices":35,
					"material":0
				}
			]
		},
		{
			"name":"Cube.036",
			"primitives":[
				{
					"attributes":{
						"POSITION":36,
						"NORMAL":37,
						"TEXCOORD_0":38
					},
					"indices":39,
					"material":2
				}
			]
		},
		{
			"name":"Cube.038",
			"primitives":[
				{
					"attributes":{
						"POSITION":40,
						"NORMAL":41,
						"TEXCOORD_0":42
					},
					"indices":39,
					"material":2
				}
			]
		},
		{
			"name":"Cube.042",
			"primitives":[
				{
					"attributes":{
						"POSITION":43,
						"NORMAL":44,
						"TEXCOORD_0":45
					},
					"indices":46,
					"material":4
				}
			]
		},
		{
			"name":"Cube.045",
			"primitives":[
				{
					"attributes":{
						"POSITION":47,
						"NORMAL":48,
						"TEXCOORD_0":49
					},
					"indices":50,
					"material":4
				}
			]
		},
		{
			"name":"Cube.001",
			"primitives":[
				{
					"attributes":{
						"POSITION":51,
						"NORMAL":52,
						"TEXCOORD_0":53
					},
					"indices":54,
					"material":2
				}
			]
		},
		{
			"name":"Cube.002",
			"primitives":[
				{
					"attributes":{
						"POSITION":55,
						"NORMAL":56,
						"TEXCOORD_0":57
					},
					"indices":58,
					"material":2
				}
			]
		}
	],
	"textures":[
		{
			"sampler":0,
			"source":0
		},
		{
			"sampler":0,
			"source":1
		},
		{
			"sampler":0,
			"source":2
		},
		{
			"sampler":0,
			"source":2
		},
		{
			"sampler":0,
			"source":0
		}
	],
	"images":[
		{
			"mimeType":"image/jpeg",
			"name":"plywood_diff_4k",
			"uri":"plywood_diff_4k.jpg"
		},
		{
			"mimeType":"image/png",
			"name":"green_metal_rust_rough_4k",
			"uri":"green_metal_rust_rough_4k.png"
		},
		{
			"mimeType":"image/jpeg",
			"name":"rusty_metal_sheet_diff_4k",
			"uri":"rusty_metal_sheet_diff_4k.jpg"
		}
	],
	"accessors":[
		{
			"bufferView":0,
			"componentType":5126,
			"count":4024,
			"max":[
				1.1217427253723145,
				3.4306418895721436,
				0.4881390333175659
			],
			"min":[
				-0.8782572746276855,
				-4.012068271636963,
				-1.5118629932403564
			],
			"type":"VEC3"
		},
		{
			"bufferView":1,
			"componentType":5126,
			"count":4024,
			"type":"VEC3"
		},
		{
			"bufferView":2,
			"componentType":5126,
			"count":4024,
			"type":"VEC2"
		},
		{
			"bufferView":3,
			"componentType":5123,
			"count":7866,
			"type":"SCALAR"
		},
		{
			"bufferView":4,
			"componentType":5126,
			"count":143,
			"max":[
				-0.7865908145904541,
				1.6629329919815063,
				0.48813700675964355
			],
			"min":[
				-0.8715906739234924,
				-0.5745677351951599,
				0.1524226814508438
			],
			"type":"VEC3"
		},
		{
			"bufferView":5,
			"componentType":5126,
			"count":143,
			"type":"VEC3"
		},
		{
			"bufferView":6,
			"componentType":5126,
			"count":143,
			"type":"VEC2"
		},
		{
			"bufferView":7,
			"componentType":5123,
			"count":270,
			"type":"SCALAR"
		},
		{
			"bufferView":8,
			"componentType":5126,
			"count":360,
			"max":[
				0.3562500774860382,
				3.0718753337860107,
				0.04999995231628418
			],
			"min":[
				-0.356250137090683,
				-3.07187557220459,
				-0.04999995231628418
			],
			"type":"VEC3"
		},
		{
			"bufferView":9,
			"componentType":5126,
			"count":360,
			"type":"VEC3"
		},
		{
			"bufferView":10,
			"componentType":5126,
			"count":360,
			"type":"VEC2"
		},
		{
			"bufferView":11,
			"componentType":5123,
			"count":708,
			"type":"SCALAR"
		},
		{
			"bufferView":12,
			"componentType":5126,
			"count":2172,
			"max":[
				-0.23149996995925903,
				0.2844054400920868,
				0.09463579952716827
			],
			"min":[
				-0.24350005388259888,
				-0.2606622874736786,
				-0.09463581442832947
			],
			"type":"VEC3"
		},
		{
			"bufferView":13,
			"componentType":5126,
			"count":2172,
			"type":"VEC3"
		},
		{
			"bufferView":14,
			"componentType":5126,
			"count":2172,
			"type":"VEC2"
		},
		{
			"bufferView":15,
			"componentType":5123,
			"count":11904,
			"type":"SCALAR"
		},
		{
			"bufferView":16,
			"componentType":5126,
			"count":1088,
			"max":[
				-0.2229107767343521,
				0.33243417739868164,
				0.05745602399110794
			],
			"min":[
				-0.25208911299705505,
				-0.30869150161743164,
				-0.05745604634284973
			],
			"type":"VEC3"
		},
		{
			"bufferView":17,
			"componentType":5126,
			"count":1088,
			"type":"VEC3"
		},
		{
			"bufferView":18,
			"componentType":5126,
			"count":1088,
			"type":"VEC2"
		},
		{
			"bufferView":19,
			"componentType":5123,
			"count":3048,
			"type":"SCALAR"
		},
		{
			"bufferView":20,
			"componentType":5126,
			"count":48,
			"max":[
				1.40625,
				3.1781253814697266,
				0.1750011444091797
			],
			"min":[
				-1.406249761581421,
				-3.081875801086426,
				-0.17499852180480957
			],
			"type":"VEC3"
		},
		{
			"bufferView":21,
			"componentType":5126,
			"count":48,
			"type":"VEC3"
		},
		{
			"bufferView":22,
			"componentType":5126,
			"count":48,
			"type":"VEC2"
		},
		{
			"bufferView":23,
			"componentType":5123,
			"count":84,
			"type":"SCALAR"
		},
		{
			"bufferView":24,
			"componentType":5126,
			"count":90,
			"max":[
				1.4999995231628418,
				0.9474983215332031,
				0.17500019073486328
			],
			"min":[
				-1.5000004768371582,
				-1.2600009441375732,
				-0.17500019073486328
			],
			"type":"VEC3"
		},
		{
			"bufferView":25,
			"componentType":5126,
			"count":90,
			"type":"VEC3"
		},
		{
			"bufferView":26,
			"componentType":5126,
			"count":90,
			"type":"VEC2"
		},
		{
			"bufferView":27,
			"componentType":5123,
			"count":216,
			"type":"SCALAR"
		},
		{
			"bufferView":28,
			"componentType":5126,
			"count":4,
			"max":[
				1.4499998092651367,
				3.442293117217332e-09,
				1.078750491142273
			],
			"min":[
				-1.4499998092651367,
				-1.2566432339156108e-09,
				-1.028748631477356
			],
			"type":"VEC3"
		},
		{
			"bufferView":29,
			"componentType":5126,
			"count":4,
			"type":"VEC3"
		},
		{
			"bufferView":30,
			"componentType":5126,
			"count":4,
			"type":"VEC2"
		},
		{
			"bufferView":31,
			"componentType":5123,
			"count":6,
			"type":"SCALAR"
		},
		{
			"bufferView":32,
			"componentType":5126,
			"count":24,
			"max":[
				-1.5,
				1.0787487030029297,
				0.17500019073486328
			],
			"min":[
				-1.8187495470046997,
				-1.1287510395050049,
				-0.17500019073486328
			],
			"type":"VEC3"
		},
		{
			"bufferView":33,
			"componentType":5126,
			"count":24,
			"type":"VEC3"
		},
		{
			"bufferView":34,
			"componentType":5126,
			"count":24,
			"type":"VEC2"
		},
		{
			"bufferView":35,
			"componentType":5123,
			"count":36,
			"type":"SCALAR"
		},
		{
			"bufferView":36,
			"componentType":5126,
			"count":70,
			"max":[
				0.6042996644973755,
				0.14625024795532227,
				0.009755194187164307
			],
			"min":[
				-0.3861039876937866,
				-0.14625048637390137,
				-0.08534103631973267
			],
			"type":"VEC3"
		},
		{
			"bufferView":37,
			"componentType":5126,
			"count":70,
			"type":"VEC3"
		},
		{
			"bufferView":38,
			"componentType":5126,
			"count":70,
			"type":"VEC2"
		},
		{
			"bufferView":39,
			"componentType":5123,
			"count":144,
			"type":"SCALAR"
		},
		{
			"bufferView":40,
			"componentType":5126,
			"count":70,
			"max":[
				0.6042996644973755,
				0.14625024795532227,
				0.009755194187164307
			],
			"min":[
				-0.3861039876937866,
				-0.14625048637390137,
				-0.08534103631973267
			],
			"type":"VEC3"
		},
		{
			"bufferView":41,
			"componentType":5126,
			"count":70,
			"type":"VEC3"
		},
		{
			"bufferView":42,
			"componentType":5126,
			"count":70,
			"type":"VEC2"
		},
		{
			"bufferView":43,
			"componentType":5126,
			"count":36,
			"max":[
				1.1375000476837158,
				1.0500001907348633,
				1.1374999284744263
			],
			"min":[
				-1.1375000476837158,
				-0.7499998211860657,
				-1.1374999284744263
			],
			"type":"VEC3"
		},
		{
			"bufferView":44,
			"componentType":5126,
			"count":36,
			"type":"VEC3"
		},
		{
			"bufferView":45,
			"componentType":5126,
			"count":36,
			"type":"VEC2"
		},
		{
			"bufferView":46,
			"componentType":5123,
			"count":60,
			"type":"SCALAR"
		},
		{
			"bufferView":47,
			"componentType":5126,
			"count":48,
			"max":[
				0.14625000953674316,
				0.050894323736429214,
				1.1645156145095825
			],
			"min":[
				-0.14625000953674316,
				-0.28898903727531433,
				-1.1645156145095825
			],
			"type":"VEC3"
		},
		{
			"bufferView":48,
			"componentType":5126,
			"count":48,
			"type":"VEC3"
		},
		{
			"bufferView":49,
			"componentType":5126,
			"count":48,
			"type":"VEC2"
		},
		{
			"bufferView":50,
			"componentType":5123,
			"count":84,
			"type":"SCALAR"
		},
		{
			"bufferView":51,
			"componentType":5126,
			"count":136,
			"max":[
				0.29023730754852295,
				0.14624865353107452,
				0.050000593066215515
			],
			"min":[
				0.19023731350898743,
				-0.14625060558319092,
				-0.04999940097332001
			],
			"type":"VEC3"
		},
		{
			"bufferView":52,
			"componentType":5126,
			"count":136,
			"type":"VEC3"
		},
		{
			"bufferView":53,
			"componentType":5126,
			"count":136,
			"type":"VEC2"
		},
		{
			"bufferView":54,
			"componentType":5123,
			"count":372,
			"type":"SCALAR"
		},
		{
			"bufferView":55,
			"componentType":5126,
			"count":136,
			"max":[
				0.29023730754852295,
				0.14624865353107452,
				0.050000593066215515
			],
			"min":[
				0.19023731350898743,
				-0.14625060558319092,
				-0.04999940097332001
			],
			"type":"VEC3"
		},
		{
			"bufferView":56,
			"componentType":5126,
			"count":136,
			"type":"VEC3"
		},
		{
			"bufferView":57,
			"componentType":5126,
			"count":136,
			"type":"VEC2"
		},
		{
			"bufferView":58,
			"componentType":5123,
			"count":372,
			"type":"SCALAR"
		}
	],
	"bufferViews":[
		{
			"buffer":0,
			"byteLength":48288,
			"byteOffset":0,
			"target":34962
		},
		{
			"buffer":0,
			"byteLength":48288,
			"byteOffset":48288,
			"target":34962
		},
		{
			"buffer":0,
			"byteLength":32192,
			"byteOffset":96576,
			"target":34962
		},
		{
			"buffer":0,
			"byteLength":15732,
			"byteOffset":128768,
			"target":34963
		},
		{
			"buffer":0,
			"byteLength":1716,
			"byteOffset":144500,
			"target":34962
		},
		{
			"buffer":0,
			"byteLength":1716,
			"byteOffset":146216,
			"target":34962
		},
		{
			"buffer":0,
			"byteLength":1144,
			"byteOffset":147932,
			"target":34962
		},
		{
			"buffer":0,
			"byteLength":540,
			"byteOffset":149076,
			"target":34963
		},
		{
			"buffer":0,
			"byteLength":4320,
			"byteOffset":149616,
			"target":34962
		},
		{
			"buffer":0,
			"byteLength":4320,
			"byteOffset":153936,
			"target":34962
		},
		{
			"buffer":0,
			"byteLength":2880,
			"byteOffset":158256,
			"target":34962
		},
		{
			"buffer":0,
			"byteLength":1416,
			"byteOffset":161136,
			"target":34963
		},
		{
			"buffer":0,
			"byteLength":26064,
			"byteOffset":162552,
			"target":34962
		},
		{
			"buffer":0,
			"byteLength":26064,
			"byteOffset":188616,
			"target":34962
		},
		{
			"buffer":0,
			"byteLength":17376,
			"byteOffset":214680,
			"target":34962
		},
		{
			"buffer":0,
			"byteLength":23808,
			"byteOffset":232056,
			"target":34963
		},
		{
			"buffer":0,
			"byteLength":13056,
			"byteOffset":255864,
			"target":34962
		},
		{
			"buffer":0,
			"byteLength":13056,
			"byteOffset":268920,
			"target":34962
		},
		{
			"buffer":0,
			"byteLength":8704,
			"byteOffset":281976,
			"target":34962
		},
		{
			"buffer":0,
			"byteLength":6096,
			"byteOffset":290680,
			"target":34963
		},
		{
			"buffer":0,
			"byteLength":576,
			"byteOffset":296776,
			"target":34962
		},
		{
			"buffer":0,
			"byteLength":576,
			"byteOffset":297352,
			"target":34962
		},
		{
			"buffer":0,
			"byteLength":384,
			"byteOffset":297928,
			"target":34962
		},
		{
			"buffer":0,
			"byteLength":168,
			"byteOffset":298312,
			"target":34963
		},
		{
			"buffer":0,
			"byteLength":1080,
			"byteOffset":298480,
			"target":34962
		},
		{
			"buffer":0,
			"byteLength":1080,
			"byteOffset":299560,
			"target":34962
		},
		{
			"buffer":0,
			"byteLength":720,
			"byteOffset":300640,
			"target":34962
		},
		{
			"buffer":0,
			"byteLength":432,
			"byteOffset":301360,
			"target":34963
		},
		{
			"buffer":0,
			"byteLength":48,
			"byteOffset":301792,
			"target":34962
		},
		{
			"buffer":0,
			"byteLength":48,
			"byteOffset":301840,
			"target":34962
		},
		{
			"buffer":0,
			"byteLength":32,
			"byteOffset":301888,
			"target":34962
		},
		{
			"buffer":0,
			"byteLength":12,
			"byteOffset":301920,
			"target":34963
		},
		{
			"buffer":0,
			"byteLength":288,
			"byteOffset":301932,
			"target":34962
		},
		{
			"buffer":0,
			"byteLength":288,
			"byteOffset":302220,
			"target":34962
		},
		{
			"buffer":0,
			"byteLength":192,
			"byteOffset":302508,
			"target":34962
		},
		{
			"buffer":0,
			"byteLength":72,
			"byteOffset":302700,
			"target":34963
		},
		{
			"buffer":0,
			"byteLength":840,
			"byteOffset":302772,
			"target":34962
		},
		{
			"buffer":0,
			"byteLength":840,
			"byteOffset":303612,
			"target":34962
		},
		{
			"buffer":0,
			"byteLength":560,
			"byteOffset":304452,
			"target":34962
		},
		{
			"buffer":0,
			"byteLength":288,
			"byteOffset":305012,
			"target":34963
		},
		{
			"buffer":0,
			"byteLength":840,
			"byteOffset":305300,
			"target":34962
		},
		{
			"buffer":0,
			"byteLength":840,
			"byteOffset":306140,
			"target":34962
		},
		{
			"buffer":0,
			"byteLength":560,
			"byteOffset":306980,
			"target":34962
		},
		{
			"buffer":0,
			"byteLength":432,
			"byteOffset":307540,
			"target":34962
		},
		{
			"buffer":0,
			"byteLength":432,
			"byteOffset":307972,
			"target":34962
		},
		{
			"buffer":0,
			"byteLength":288,
			"byteOffset":308404,
			"target":34962
		},
		{
			"buffer":0,
			"byteLength":120,
			"byteOffset":308692,
			"target":34963
		},
		{
			"buffer":0,
			"byteLength":576,
			"byteOffset":308812,
			"target":34962
		},
		{
			"buffer":0,
			"byteLength":576,
			"byteOffset":309388,
			"target":34962
		},
		{
			"buffer":0,
			"byteLength":384,
			"byteOffset":309964,
			"target":34962
		},
		{
			"buffer":0,
			"byteLength":168,
			"byteOffset":310348,
			"target":34963
		},
		{
			"buffer":0,
			"byteLength":1632,
			"byteOffset":310516,
			"target":34962
		},
		{
			"buffer":0,
			"byteLength":1632,
			"byteOffset":312148,
			"target":34962
		},
		{
			"buffer":0,
			"byteLength":1088,
			"byteOffset":313780,
			"target":34962
		},
		{
			"buffer":0,
			"byteLength":744,
			"byteOffset":314868,
			"target":34963
		},
		{
			"buffer":0,
			"byteLength":1632,
			"byteOffset":315612,
			"target":34962
		},
		{
			"buffer":0,
			"byteLength":1632,
			"byteOffset":317244,
			"target":34962
		},
		{
			"buffer":0,
			"byteLength":1088,
			"byteOffset":318876,
			"target":34962
		},
		{
			"buffer":0,
			"byteLength":744,
			"byteOffset":319964,
			"target":34963
		}
	],
	"samplers":[
		{
			"magFilter":9729,
			"minFilter":9987
		}
	],
	"buffers":[
		{
			"byteLength":320708,
			"uri":"ToolShed1.bin"
		}
	]
}
