{
	"asset":{
		"generator":"Khronos glTF Blender I/O v4.1.63",
		"version":"2.0"
	},
	"extensionsUsed":[
		"KHR_materials_specular"
	],
	"scene":0,
	"scenes":[
		{
			"name":"Scene",
			"nodes":[
				0,
				1,
				2,
				3,
				4,
				5,
				6,
				7
			]
		}
	],
	"nodes":[
		{
			"mesh":0,
			"name":"Cube.026",
			"scale":[
				3.75,
				1,
				3.5
			],
			"translation":[
				1.002849817276001,
				3.0964484214782715,
				3.325007200241089
			]
		},
		{
			"mesh":1,
			"name":"Cube",
			"translation":[
				0.9999995231628418,
				3.0839474201202393,
				3.324998378753662
			]
		},
		{
			"mesh":2,
			"name":"Cube.001",
			"scale":[
				1,
				1,
				0.1499999761581421
			],
			"translation":[
				-1.406250238418579,
				3.0839483737945557,
				3.325007200241089
			]
		},
		{
			"mesh":3,
			"name":"Cube.002",
			"scale":[
				1,
				1,
				0.1499999761581421
			],
			"translation":[
				1.6774189472198486,
				4.945938587188721,
				-0.6468825340270996
			]
		},
		{
			"mesh":4,
			"name":"Cube.003",
			"translation":[
				1.749999761581421,
				6.824573040008545,
				-1.0749926567077637
			]
		},
		{
			"mesh":5,
			"name":"Cube.019",
			"translation":[
				1.6774189472198486,
				7.887073040008545,
				-0.6468825340270996
			]
		},
		{
			"mesh":6,
			"name":"Cylinder.002",
			"scale":[
				0.04999999701976776,
				0.19999998807907104,
				0.04999999701976776
			],
			"translation":[
				2.371093273162842,
				5.046448230743408,
				3.500007390975952
			]
		},
		{
			"mesh":7,
			"name":"Cube.004",
			"scale":[
				1,
				1,
				0.1499999761581421
			],
			"translation":[
				-1.406250238418579,
				3.0839483737945557,
				3.325007200241089
			]
		}
	],
	"materials":[
		{
			"doubleSided":true,
			"extensions":{
				"KHR_materials_specular":{
					"specularFactor":0
				}
			},
			"name":"PlyWood",
			"pbrMetallicRoughness":{
				"baseColorTexture":{
					"index":0
				},
				"metallicFactor":0
			}
		},
		{
			"doubleSided":true,
			"extensions":{
				"KHR_materials_specular":{
					"specularFactor":0,
					"specularColorFactor":[
						0.21401596069335938,
						0.21401596069335938,
						0.21401596069335938
					]
				}
			},
			"name":"DoorKnob",
			"pbrMetallicRoughness":{
				"baseColorTexture":{
					"index":1
				},
				"metallicFactor":0
			}
		},
		{
			"doubleSided":true,
			"name":"Wood",
			"pbrMetallicRoughness":{
				"baseColorTexture":{
					"index":2
				},
				"metallicFactor":0
			}
		},
		{
			"doubleSided":true,
			"extensions":{
				"KHR_materials_specular":{
					"specularColorFactor":[
						0.21401596069335938,
						0.21401596069335938,
						0.21401596069335938
					]
				}
			},
			"name":"UsedMetal",
			"pbrMetallicRoughness":{
				"baseColorTexture":{
					"index":3
				},
				"metallicFactor":0
			}
		},
		{
			"doubleSided":true,
			"extensions":{
				"KHR_materials_specular":{
					"specularColorFactor":[
						0.21401596069335938,
						0.21401596069335938,
						0.21401596069335938
					]
				}
			},
			"name":"UsedMetal.001",
			"pbrMetallicRoughness":{
				"baseColorTexture":{
					"index":4
				},
				"roughnessFactor":0.5
			}
		},
		{
			"doubleSided":true,
			"extensions":{
				"KHR_materials_specular":{
					"specularFactor":0
				}
			},
			"name":"Roof",
			"pbrMetallicRoughness":{
				"baseColorTexture":{
					"index":5
				},
				"metallicFactor":0,
				"roughnessFactor":0.5
			}
		}
	],
	"meshes":[
		{
			"name":"Cube.024",
			"primitives":[
				{
					"attributes":{
						"POSITION":0,
						"NORMAL":1,
						"TEXCOORD_0":2
					},
					"indices":3,
					"material":0
				},
				{
					"attributes":{
						"POSITION":4,
						"NORMAL":5,
						"TEXCOORD_0":6
					},
					"indices":7,
					"material":1
				}
			]
		},
		{
			"name":"Cube.033",
			"primitives":[
				{
					"attributes":{
						"POSITION":8,
						"NORMAL":9,
						"TEXCOORD_0":10
					},
					"indices":11,
					"material":0
				}
			]
		},
		{
			"name":"Cube",
			"primitives":[
				{
					"attributes":{
						"POSITION":12,
						"NORMAL":13,
						"TEXCOORD_0":14
					},
					"indices":15,
					"material":2
				}
			]
		},
		{
			"name":"Cube.001",
			"primitives":[
				{
					"attributes":{
						"POSITION":16,
						"NORMAL":17,
						"TEXCOORD_0":18
					},
					"indices":19,
					"material":3
				}
			]
		},
		{
			"name":"Cube.003",
			"primitives":[
				{
					"attributes":{
						"POSITION":20,
						"NORMAL":21,
						"TEXCOORD_0":22
					},
					"indices":23,
					"material":4
				}
			]
		},
		{
			"name":"Cube.018",
			"primitives":[
				{
					"attributes":{
						"POSITION":24,
						"NORMAL":25,
						"TEXCOORD_0":26
					},
					"indices":27,
					"material":5
				}
			]
		},
		{
			"name":"Cylinder.003",
			"primitives":[
				{
					"attributes":{
						"POSITION":28,
						"NORMAL":29,
						"TEXCOORD_0":30
					},
					"indices":31,
					"material":4
				}
			]
		},
		{
			"name":"Cube.029",
			"primitives":[
				{
					"attributes":{
						"POSITION":32,
						"NORMAL":33,
						"TEXCOORD_0":34
					},
					"indices":35,
					"material":0
				}
			]
		}
	],
	"textures":[
		{
			"sampler":0,
			"source":0
		},
		{
			"sampler":0,
			"source":1
		},
		{
			"sampler":0,
			"source":2
		},
		{
			"sampler":0,
			"source":1
		},
		{
			"sampler":0,
			"source":1
		},
		{
			"sampler":0,
			"source":3
		}
	],
	"images":[
		{
			"mimeType":"image/png",
			"name":"plywood_rough_4k",
			"uri":"plywood_rough_4k.png"
		},
		{
			"mimeType":"image/jpeg",
			"name":"rusty_metal_sheet_diff_4k",
			"uri":"rusty_metal_sheet_diff_4k.jpg"
		},
		{
			"mimeType":"image/jpeg",
			"name":"fine_grained_wood_rough_4k",
			"uri":"fine_grained_wood_rough_4k.jpg"
		},
		{
			"mimeType":"image/jpeg",
			"name":"granite_tile_diff_4k",
			"uri":"granite_tile_diff_4k.jpg"
		}
	],
	"accessors":[
		{
			"bufferView":0,
			"componentType":5126,
			"count":120,
			"max":[
				0.35625019669532776,
				3.059375286102295,
				0.04999995231628418
			],
			"min":[
				-0.3562503159046173,
				-3.059375286102295,
				-0.04999995231628418
			],
			"type":"VEC3"
		},
		{
			"bufferView":1,
			"componentType":5126,
			"count":120,
			"type":"VEC3"
		},
		{
			"bufferView":2,
			"componentType":5126,
			"count":120,
			"type":"VEC2"
		},
		{
			"bufferView":3,
			"componentType":5123,
			"count":240,
			"type":"SCALAR"
		},
		{
			"bufferView":4,
			"componentType":5126,
			"count":5816,
			"max":[
				-0.22516663372516632,
				0.4948321580886841,
				0.1137973815202713
			],
			"min":[
				-0.25211381912231445,
				-0.31358349323272705,
				-0.1137973815202713
			],
			"type":"VEC3"
		},
		{
			"bufferView":5,
			"componentType":5126,
			"count":5816,
			"type":"VEC3"
		},
		{
			"bufferView":6,
			"componentType":5126,
			"count":5816,
			"type":"VEC2"
		},
		{
			"bufferView":7,
			"componentType":5123,
			"count":27792,
			"type":"SCALAR"
		},
		{
			"bufferView":8,
			"componentType":5126,
			"count":48,
			"max":[
				1.40625,
				3.278125286102295,
				0.2100009024143219
			],
			"min":[
				-1.406249761581421,
				-3.0718743801116943,
				-0.2099987119436264
			],
			"type":"VEC3"
		},
		{
			"bufferView":9,
			"componentType":5126,
			"count":48,
			"type":"VEC3"
		},
		{
			"bufferView":10,
			"componentType":5126,
			"count":48,
			"type":"VEC2"
		},
		{
			"bufferView":11,
			"componentType":5123,
			"count":84,
			"type":"SCALAR"
		},
		{
			"bufferView":12,
			"componentType":5126,
			"count":128,
			"max":[
				6.3125,
				3.7781248092651367,
				1.1666673421859741
			],
			"min":[
				0,
				-3.0718753337860107,
				-59.66667175292969
			],
			"type":"VEC3"
		},
		{
			"bufferView":13,
			"componentType":5126,
			"count":128,
			"type":"VEC3"
		},
		{
			"bufferView":14,
			"componentType":5126,
			"count":128,
			"type":"VEC2"
		},
		{
			"bufferView":15,
			"componentType":5123,
			"count":246,
			"type":"SCALAR"
		},
		{
			"bufferView":16,
			"componentType":5126,
			"count":108,
			"max":[
				3.2288308143615723,
				1.9161344766616821,
				27.47926902770996
			],
			"min":[
				-3.0836691856384277,
				-4.933865547180176,
				-33.187400817871094
			],
			"type":"VEC3"
		},
		{
			"bufferView":17,
			"componentType":5126,
			"count":108,
			"type":"VEC3"
		},
		{
			"bufferView":18,
			"componentType":5126,
			"count":108,
			"type":"VEC2"
		},
		{
			"bufferView":19,
			"componentType":5123,
			"count":252,
			"type":"SCALAR"
		},
		{
			"bufferView":20,
			"componentType":5126,
			"count":20,
			"max":[
				3.421687602996826,
				0.0625,
				4.801498889923096
			],
			"min":[
				-3.421687602996826,
				-0.06250011920928955,
				-4.801498889923096
			],
			"type":"VEC3"
		},
		{
			"bufferView":21,
			"componentType":5126,
			"count":20,
			"type":"VEC3"
		},
		{
			"bufferView":22,
			"componentType":5126,
			"count":20,
			"type":"VEC2"
		},
		{
			"bufferView":23,
			"componentType":5123,
			"count":30,
			"type":"SCALAR"
		},
		{
			"bufferView":24,
			"componentType":5126,
			"count":1440,
			"max":[
				3.428830862045288,
				-0.5,
				4.3218889236450195
			],
			"min":[
				-3.2836692333221436,
				-1,
				-5.178109169006348
			],
			"type":"VEC3"
		},
		{
			"bufferView":25,
			"componentType":5126,
			"count":1440,
			"type":"VEC3"
		},
		{
			"bufferView":26,
			"componentType":5126,
			"count":1440,
			"type":"VEC2"
		},
		{
			"bufferView":27,
			"componentType":5123,
			"count":3744,
			"type":"SCALAR"
		},
		{
			"bufferView":28,
			"componentType":5126,
			"count":768,
			"max":[
				1.0000019073486328,
				3.25,
				1.0000038146972656
			],
			"min":[
				-1,
				-22.75,
				-1.0000038146972656
			],
			"type":"VEC3"
		},
		{
			"bufferView":29,
			"componentType":5126,
			"count":768,
			"type":"VEC3"
		},
		{
			"bufferView":30,
			"componentType":5126,
			"count":768,
			"type":"VEC2"
		},
		{
			"bufferView":31,
			"componentType":5123,
			"count":1488,
			"type":"SCALAR"
		},
		{
			"bufferView":32,
			"componentType":5126,
			"count":8,
			"max":[
				6.083907127380371,
				-3.0718753337860107,
				1.1666673421859741
			],
			"min":[
				0.228593111038208,
				-3.0718753337860107,
				-58.309391021728516
			],
			"type":"VEC3"
		},
		{
			"bufferView":33,
			"componentType":5126,
			"count":8,
			"type":"VEC3"
		},
		{
			"bufferView":34,
			"componentType":5126,
			"count":8,
			"type":"VEC2"
		},
		{
			"bufferView":35,
			"componentType":5123,
			"count":18,
			"type":"SCALAR"
		}
	],
	"bufferViews":[
		{
			"buffer":0,
			"byteLength":1440,
			"byteOffset":0,
			"target":34962
		},
		{
			"buffer":0,
			"byteLength":1440,
			"byteOffset":1440,
			"target":34962
		},
		{
			"buffer":0,
			"byteLength":960,
			"byteOffset":2880,
			"target":34962
		},
		{
			"buffer":0,
			"byteLength":480,
			"byteOffset":3840,
			"target":34963
		},
		{
			"buffer":0,
			"byteLength":69792,
			"byteOffset":4320,
			"target":34962
		},
		{
			"buffer":0,
			"byteLength":69792,
			"byteOffset":74112,
			"target":34962
		},
		{
			"buffer":0,
			"byteLength":46528,
			"byteOffset":143904,
			"target":34962
		},
		{
			"buffer":0,
			"byteLength":55584,
			"byteOffset":190432,
			"target":34963
		},
		{
			"buffer":0,
			"byteLength":576,
			"byteOffset":246016,
			"target":34962
		},
		{
			"buffer":0,
			"byteLength":576,
			"byteOffset":246592,
			"target":34962
		},
		{
			"buffer":0,
			"byteLength":384,
			"byteOffset":247168,
			"target":34962
		},
		{
			"buffer":0,
			"byteLength":168,
			"byteOffset":247552,
			"target":34963
		},
		{
			"buffer":0,
			"byteLength":1536,
			"byteOffset":247720,
			"target":34962
		},
		{
			"buffer":0,
			"byteLength":1536,
			"byteOffset":249256,
			"target":34962
		},
		{
			"buffer":0,
			"byteLength":1024,
			"byteOffset":250792,
			"target":34962
		},
		{
			"buffer":0,
			"byteLength":492,
			"byteOffset":251816,
			"target":34963
		},
		{
			"buffer":0,
			"byteLength":1296,
			"byteOffset":252308,
			"target":34962
		},
		{
			"buffer":0,
			"byteLength":1296,
			"byteOffset":253604,
			"target":34962
		},
		{
			"buffer":0,
			"byteLength":864,
			"byteOffset":254900,
			"target":34962
		},
		{
			"buffer":0,
			"byteLength":504,
			"byteOffset":255764,
			"target":34963
		},
		{
			"buffer":0,
			"byteLength":240,
			"byteOffset":256268,
			"target":34962
		},
		{
			"buffer":0,
			"byteLength":240,
			"byteOffset":256508,
			"target":34962
		},
		{
			"buffer":0,
			"byteLength":160,
			"byteOffset":256748,
			"target":34962
		},
		{
			"buffer":0,
			"byteLength":60,
			"byteOffset":256908,
			"target":34963
		},
		{
			"buffer":0,
			"byteLength":17280,
			"byteOffset":256968,
			"target":34962
		},
		{
			"buffer":0,
			"byteLength":17280,
			"byteOffset":274248,
			"target":34962
		},
		{
			"buffer":0,
			"byteLength":11520,
			"byteOffset":291528,
			"target":34962
		},
		{
			"buffer":0,
			"byteLength":7488,
			"byteOffset":303048,
			"target":34963
		},
		{
			"buffer":0,
			"byteLength":9216,
			"byteOffset":310536,
			"target":34962
		},
		{
			"buffer":0,
			"byteLength":9216,
			"byteOffset":319752,
			"target":34962
		},
		{
			"buffer":0,
			"byteLength":6144,
			"byteOffset":328968,
			"target":34962
		},
		{
			"buffer":0,
			"byteLength":2976,
			"byteOffset":335112,
			"target":34963
		},
		{
			"buffer":0,
			"byteLength":96,
			"byteOffset":338088,
			"target":34962
		},
		{
			"buffer":0,
			"byteLength":96,
			"byteOffset":338184,
			"target":34962
		},
		{
			"buffer":0,
			"byteLength":64,
			"byteOffset":338280,
			"target":34962
		},
		{
			"buffer":0,
			"byteLength":36,
			"byteOffset":338344,
			"target":34963
		}
	],
	"samplers":[
		{
			"magFilter":9729,
			"minFilter":9987
		}
	],
	"buffers":[
		{
			"byteLength":338380,
			"uri":"ToolShed2.bin"
		}
	]
}
