{
	"asset":{
		"generator":"Khronos glTF Blender I/O v4.1.63",
		"version":"2.0"
	},
	"extensionsUsed":[
		"KHR_materials_specular"
	],
	"scene":0,
	"scenes":[
		{
			"name":"Scene",
			"nodes":[
				0,
				1
			]
		}
	],
	"nodes":[
		{
			"mesh":0,
			"name":"BackdoorFrame.001",
			"scale":[
				1.0943174362182617,
				1,
				1
			],
			"translation":[
				299.6902770996094,
				-22.41949462890625,
				123.08184814453125
			]
		},
		{
			"mesh":1,
			"name":"WallLining.001",
			"rotation":[
				0,
				1,
				0,
				1.6292068494294654e-07
			],
			"scale":[
				93.3559799194336,
				19.697355270385742,
				40.312442779541016
			],
			"translation":[
				-134.76553344726562,
				4.563397407531738,
				52.31121826171875
			]
		}
	],
	"materials":[
		{
			"doubleSided":true,
			"extensions":{
				"KHR_materials_specular":{
					"specularColorFactor":[
						0.21401596069335938,
						0.21401596069335938,
						0.21401596069335938
					]
				}
			},
			"name":"UsedMetal",
			"pbrMetallicRoughness":{
				"baseColorTexture":{
					"index":0
				},
				"roughnessFactor":0.5
			}
		},
		{
			"doubleSided":true,
			"name":"Material.005",
			"pbrMetallicRoughness":{
				"baseColorTexture":{
					"index":1
				},
				"metallicFactor":0,
				"roughnessFactor":0.5
			}
		}
	],
	"meshes":[
		{
			"name":"Cylinder.001",
			"primitives":[
				{
					"attributes":{
						"POSITION":0,
						"NORMAL":1,
						"TEXCOORD_0":2
					},
					"indices":3,
					"material":0
				},
				{
					"attributes":{
						"POSITION":4,
						"NORMAL":5,
						"TEXCOORD_0":6
					},
					"indices":7,
					"material":1
				}
			]
		},
		{
			"name":"Cube.002",
			"primitives":[
				{
					"attributes":{
						"POSITION":8,
						"NORMAL":9,
						"TEXCOORD_0":10
					},
					"indices":11,
					"material":0
				}
			]
		}
	],
	"textures":[
		{
			"sampler":0,
			"source":0
		},
		{
			"sampler":0,
			"source":1
		}
	],
	"images":[
		{
			"mimeType":"image/jpeg",
			"name":"rusty_metal_sheet_diff_4k",
			"uri":"rusty_metal_sheet_diff_4k.jpg"
		},
		{
			"mimeType":"image/jpeg",
			"name":"fine_grained_wood_col_4k",
			"uri":"fine_grained_wood_col_4k.jpg"
		}
	],
	"accessors":[
		{
			"bufferView":0,
			"componentType":5126,
			"count":458,
			"max":[
				-477.2957763671875,
				18.709978103637695,
				44.07974624633789
			],
			"min":[
				-482.4468688964844,
				7.285221099853516,
				43.0627555847168
			],
			"type":"VEC3"
		},
		{
			"bufferView":1,
			"componentType":5126,
			"count":458,
			"type":"VEC3"
		},
		{
			"bufferView":2,
			"componentType":5126,
			"count":458,
			"type":"VEC2"
		},
		{
			"bufferView":3,
			"componentType":5123,
			"count":984,
			"type":"SCALAR"
		},
		{
			"bufferView":4,
			"componentType":5126,
			"count":16,
			"max":[
				-477.3367919921875,
				18.679271697998047,
				43.90797424316406
			],
			"min":[
				-482.4058532714844,
				18.679271697998047,
				43.234527587890625
			],
			"type":"VEC3"
		},
		{
			"bufferView":5,
			"componentType":5126,
			"count":16,
			"type":"VEC3"
		},
		{
			"bufferView":6,
			"componentType":5126,
			"count":16,
			"type":"VEC2"
		},
		{
			"bufferView":7,
			"componentType":5123,
			"count":36,
			"type":"SCALAR"
		},
		{
			"bufferView":8,
			"componentType":5126,
			"count":612,
			"max":[
				1.4410405158996582,
				-0.9709025621414185,
				2.8570642471313477
			],
			"min":[
				-3.773714065551758,
				-1.0000159740447998,
				-2.844947338104248
			],
			"type":"VEC3"
		},
		{
			"bufferView":9,
			"componentType":5126,
			"count":612,
			"type":"VEC3"
		},
		{
			"bufferView":10,
			"componentType":5126,
			"count":612,
			"type":"VEC2"
		},
		{
			"bufferView":11,
			"componentType":5123,
			"count":1008,
			"type":"SCALAR"
		}
	],
	"bufferViews":[
		{
			"buffer":0,
			"byteLength":5496,
			"byteOffset":0,
			"target":34962
		},
		{
			"buffer":0,
			"byteLength":5496,
			"byteOffset":5496,
			"target":34962
		},
		{
			"buffer":0,
			"byteLength":3664,
			"byteOffset":10992,
			"target":34962
		},
		{
			"buffer":0,
			"byteLength":1968,
			"byteOffset":14656,
			"target":34963
		},
		{
			"buffer":0,
			"byteLength":192,
			"byteOffset":16624,
			"target":34962
		},
		{
			"buffer":0,
			"byteLength":192,
			"byteOffset":16816,
			"target":34962
		},
		{
			"buffer":0,
			"byteLength":128,
			"byteOffset":17008,
			"target":34962
		},
		{
			"buffer":0,
			"byteLength":72,
			"byteOffset":17136,
			"target":34963
		},
		{
			"buffer":0,
			"byteLength":7344,
			"byteOffset":17208,
			"target":34962
		},
		{
			"buffer":0,
			"byteLength":7344,
			"byteOffset":24552,
			"target":34962
		},
		{
			"buffer":0,
			"byteLength":4896,
			"byteOffset":31896,
			"target":34962
		},
		{
			"buffer":0,
			"byteLength":2016,
			"byteOffset":36792,
			"target":34963
		}
	],
	"samplers":[
		{
			"magFilter":9729,
			"minFilter":9987
		}
	],
	"buffers":[
		{
			"byteLength":38808,
			"uri":"WarehouseLining.bin"
		}
	]
}
