{
	"asset":{
		"generator":"Khronos glTF Blender I/O v4.1.63",
		"version":"2.0"
	},
	"scene":0,
	"scenes":[
		{
			"name":"Scene",
			"nodes":[
				0
			]
		}
	],
	"nodes":[
		{
			"mesh":0,
			"name":"ShelfLegs.001",
			"scale":[
				0.4509545564651489,
				1,
				0.3677451014518738
			],
			"translation":[
				-188.17047119140625,
				8.557398796081543,
				149.22686767578125
			]
		}
	],
	"materials":[
		{
			"doubleSided":true,
			"name":"DeepBlueTiles",
			"pbrMetallicRoughness":{
				"baseColorTexture":{
					"index":0
				},
				"metallicFactor":0,
				"roughnessFactor":0.5
			}
		},
		{
			"doubleSided":true,
			"name":"Material.001",
			"pbrMetallicRoughness":{
				"baseColorTexture":{
					"index":1
				},
				"metallicFactor":0,
				"roughnessFactor":0.5
			}
		},
		{
			"doubleSided":true,
			"name":"OrangeTiles",
			"pbrMetallicRoughness":{
				"baseColorTexture":{
					"index":2
				},
				"metallicFactor":0,
				"roughnessFactor":0.5
			}
		},
		{
			"doubleSided":true,
			"name":"WoodDirtCedar",
			"pbrMetallicRoughness":{
				"baseColorTexture":{
					"index":3
				},
				"metallicFactor":0
			}
		}
	],
	"meshes":[
		{
			"name":"Cube.005",
			"primitives":[
				{
					"attributes":{
						"POSITION":0,
						"NORMAL":1,
						"TEXCOORD_0":2
					},
					"indices":3,
					"material":0
				},
				{
					"attributes":{
						"POSITION":4,
						"NORMAL":5,
						"TEXCOORD_0":6
					},
					"indices":7,
					"material":1
				},
				{
					"attributes":{
						"POSITION":8,
						"NORMAL":9,
						"TEXCOORD_0":10
					},
					"indices":11,
					"material":2
				},
				{
					"attributes":{
						"POSITION":12,
						"NORMAL":13,
						"TEXCOORD_0":14
					},
					"indices":15,
					"material":3
				}
			]
		}
	],
	"textures":[
		{
			"sampler":0,
			"source":0
		},
		{
			"sampler":0,
			"source":1
		},
		{
			"sampler":0,
			"source":0
		},
		{
			"sampler":0,
			"source":2
		}
	],
	"images":[
		{
			"mimeType":"image/jpeg",
			"name":"rusty_metal_sheet_diff_4k",
			"uri":"rusty_metal_sheet_diff_4k.jpg"
		},
		{
			"mimeType":"image/png",
			"name":"a7088c96946846ebc6d332db21325a01",
			"uri":"a7088c96946846ebc6d332db21325a01.png"
		},
		{
			"mimeType":"image/jpeg",
			"name":"fine_grained_wood_col_4k",
			"uri":"fine_grained_wood_col_4k.jpg"
		}
	],
	"accessors":[
		{
			"bufferView":0,
			"componentType":5126,
			"count":1289812,
			"max":[
				866.150634765625,
				25.577804565429688,
				21.733552932739258
			],
			"min":[
				505.72332763671875,
				-23.691354751586914,
				-21.71121597290039
			],
			"type":"VEC3"
		},
		{
			"bufferView":1,
			"componentType":5126,
			"count":1289812,
			"type":"VEC3"
		},
		{
			"bufferView":2,
			"componentType":5126,
			"count":1289812,
			"type":"VEC2"
		},
		{
			"bufferView":3,
			"componentType":5125,
			"count":2113008,
			"type":"SCALAR"
		},
		{
			"bufferView":4,
			"componentType":5126,
			"count":32,
			"max":[
				860.61962890625,
				-0.3730921745300293,
				21.733474731445312
			],
			"min":[
				511.2538757324219,
				-17.25044822692871,
				-21.711227416992188
			],
			"type":"VEC3"
		},
		{
			"bufferView":5,
			"componentType":5126,
			"count":32,
			"type":"VEC3"
		},
		{
			"bufferView":6,
			"componentType":5126,
			"count":32,
			"type":"VEC2"
		},
		{
			"bufferView":7,
			"componentType":5123,
			"count":48,
			"type":"SCALAR"
		},
		{
			"bufferView":8,
			"componentType":5126,
			"count":50636,
			"max":[
				862.941650390625,
				0.5282869338989258,
				21.867691040039062
			],
			"min":[
				508.9322204589844,
				-20.85594940185547,
				-21.845355987548828
			],
			"type":"VEC3"
		},
		{
			"bufferView":9,
			"componentType":5126,
			"count":50636,
			"type":"VEC3"
		},
		{
			"bufferView":10,
			"componentType":5126,
			"count":50636,
			"type":"VEC2"
		},
		{
			"bufferView":11,
			"componentType":5123,
			"count":92616,
			"type":"SCALAR"
		},
		{
			"bufferView":12,
			"componentType":5126,
			"count":44242,
			"max":[
				857.71533203125,
				1.7311601638793945,
				20.568801879882812
			],
			"min":[
				514.4470825195312,
				-17.25045394897461,
				-20.570846557617188
			],
			"type":"VEC3"
		},
		{
			"bufferView":13,
			"componentType":5126,
			"count":44242,
			"type":"VEC3"
		},
		{
			"bufferView":14,
			"componentType":5126,
			"count":44242,
			"type":"VEC2"
		},
		{
			"bufferView":15,
			"componentType":5123,
			"count":128592,
			"type":"SCALAR"
		}
	],
	"bufferViews":[
		{
			"buffer":0,
			"byteLength":15477744,
			"byteOffset":0,
			"target":34962
		},
		{
			"buffer":0,
			"byteLength":15477744,
			"byteOffset":15477744,
			"target":34962
		},
		{
			"buffer":0,
			"byteLength":10318496,
			"byteOffset":30955488,
			"target":34962
		},
		{
			"buffer":0,
			"byteLength":8452032,
			"byteOffset":41273984,
			"target":34963
		},
		{
			"buffer":0,
			"byteLength":384,
			"byteOffset":49726016,
			"target":34962
		},
		{
			"buffer":0,
			"byteLength":384,
			"byteOffset":49726400,
			"target":34962
		},
		{
			"buffer":0,
			"byteLength":256,
			"byteOffset":49726784,
			"target":34962
		},
		{
			"buffer":0,
			"byteLength":96,
			"byteOffset":49727040,
			"target":34963
		},
		{
			"buffer":0,
			"byteLength":607632,
			"byteOffset":49727136,
			"target":34962
		},
		{
			"buffer":0,
			"byteLength":607632,
			"byteOffset":50334768,
			"target":34962
		},
		{
			"buffer":0,
			"byteLength":405088,
			"byteOffset":50942400,
			"target":34962
		},
		{
			"buffer":0,
			"byteLength":185232,
			"byteOffset":51347488,
			"target":34963
		},
		{
			"buffer":0,
			"byteLength":530904,
			"byteOffset":51532720,
			"target":34962
		},
		{
			"buffer":0,
			"byteLength":530904,
			"byteOffset":52063624,
			"target":34962
		},
		{
			"buffer":0,
			"byteLength":353936,
			"byteOffset":52594528,
			"target":34962
		},
		{
			"buffer":0,
			"byteLength":257184,
			"byteOffset":52948464,
			"target":34963
		}
	],
	"samplers":[
		{
			"magFilter":9729,
			"minFilter":9987
		}
	],
	"buffers":[
		{
			"byteLength":53205648,
			"uri":"WarehouseShelves2.bin"
		}
	]
}
