{
	"asset":{
		"generator":"Khronos glTF Blender I/O v4.1.63",
		"version":"2.0"
	},
	"scene":0,
	"scenes":[
		{
			"name":"Scene",
			"nodes":[
				0,
				1,
				2,
				3,
				4
			]
		}
	],
	"nodes":[
		{
			"mesh":0,
			"name":"Lights",
			"scale":[
				2.636788845062256,
				2.636788845062256,
				2.636788845062256
			],
			"translation":[
				-25.860336303710938,
				46.72323989868164,
				51.959022521972656
			]
		},
		{
			"mesh":1,
			"name":"Backdoor",
			"rotation":[
				0,
				0,
				-0.7071068286895752,
				0.7071068286895752
			],
			"scale":[
				10.039754867553711,
				10.039754867553711,
				9.035778999328613
			],
			"translation":[
				-225.5027618408203,
				-9.358359336853027,
				166.65081787109375
			]
		},
		{
			"mesh":2,
			"name":"Logs",
			"translation":[
				-256.8739013671875,
				0.7306103706359863,
				52.03398895263672
			]
		},
		{
			"mesh":3,
			"name":"SideTubes.002",
			"scale":[
				1,
				43.4421272277832,
				1
			],
			"translation":[
				-25.859420776367188,
				51.1047248840332,
				51.97444152832031
			]
		},
		{
			"mesh":4,
			"name":"BrokenPlanks",
			"rotation":[
				-0.04743663966655731,
				0.7180643677711487,
				0.04074663296341896,
				0.69316166639328
			],
			"scale":[
				0.6761518716812134,
				0.2798997759819031,
				0.478976845741272
			],
			"translation":[
				-35.87367630004883,
				-16.139476776123047,
				69.18167114257812
			]
		}
	],
	"materials":[
		{
			"alphaMode":"BLEND",
			"doubleSided":true,
			"name":"DirtyGlass",
			"pbrMetallicRoughness":{
				"baseColorFactor":[
					1,
					1,
					1,
					0.3499999940395355
				],
				"baseColorTexture":{
					"index":0
				},
				"metallicFactor":0,
				"roughnessFactor":0
			}
		},
		{
			"doubleSided":true,
			"name":"BlackWater",
			"pbrMetallicRoughness":{
				"metallicRoughnessTexture":{
					"index":1
				}
			}
		},
		{
			"alphaCutoff":0.5,
			"alphaMode":"MASK",
			"doubleSided":true,
			"name":"RustyMetal",
			"pbrMetallicRoughness":{
				"baseColorTexture":{
					"index":2
				},
				"metallicFactor":0.807272732257843,
				"roughnessFactor":0.4036363363265991
			}
		},
		{
			"alphaCutoff":0.5,
			"alphaMode":"MASK",
			"doubleSided":true,
			"name":"RustyMetalDull",
			"pbrMetallicRoughness":{
				"baseColorTexture":{
					"index":3
				},
				"roughnessFactor":0.8520379066467285
			}
		},
		{
			"doubleSided":true,
			"name":"Plywood",
			"pbrMetallicRoughness":{
				"baseColorTexture":{
					"index":4
				},
				"metallicFactor":0,
				"roughnessFactor":0.5
			}
		},
		{
			"doubleSided":true,
			"name":"FineGrainedWood",
			"pbrMetallicRoughness":{
				"baseColorTexture":{
					"index":5
				},
				"metallicFactor":0,
				"roughnessFactor":0.5
			}
		},
		{
			"doubleSided":true,
			"name":"WoodDirtCedar",
			"pbrMetallicRoughness":{
				"baseColorTexture":{
					"index":6
				},
				"metallicFactor":0
			}
		},
		{
			"doubleSided":true,
			"name":"WarehouseWallsBeams",
			"pbrMetallicRoughness":{
				"baseColorTexture":{
					"index":7
				},
				"metallicFactor":0.75,
				"roughnessFactor":0.20000000298023224
			}
		}
	],
	"meshes":[
		{
			"name":"Sphere.019",
			"primitives":[
				{
					"attributes":{
						"POSITION":0,
						"NORMAL":1,
						"TEXCOORD_0":2
					},
					"indices":3,
					"material":0
				},
				{
					"attributes":{
						"POSITION":4,
						"NORMAL":5,
						"TEXCOORD_0":6
					},
					"indices":7,
					"material":1
				},
				{
					"attributes":{
						"POSITION":8,
						"NORMAL":9,
						"TEXCOORD_0":10
					},
					"indices":11,
					"material":2
				}
			]
		},
		{
			"name":"Plane.019",
			"primitives":[
				{
					"attributes":{
						"POSITION":12,
						"NORMAL":13,
						"TEXCOORD_0":14
					},
					"indices":15,
					"material":2
				},
				{
					"attributes":{
						"POSITION":16,
						"NORMAL":17,
						"TEXCOORD_0":18
					},
					"indices":19,
					"material":3
				}
			]
		},
		{
			"name":"Cylinder.202",
			"primitives":[
				{
					"attributes":{
						"POSITION":20,
						"NORMAL":21,
						"TEXCOORD_0":22
					},
					"indices":23,
					"material":4
				},
				{
					"attributes":{
						"POSITION":24,
						"NORMAL":25,
						"TEXCOORD_0":26
					},
					"indices":27,
					"material":5
				},
				{
					"attributes":{
						"POSITION":28,
						"NORMAL":29,
						"TEXCOORD_0":30
					},
					"indices":31,
					"material":6
				}
			]
		},
		{
			"name":"Cube.428",
			"primitives":[
				{
					"attributes":{
						"POSITION":32,
						"NORMAL":33,
						"TEXCOORD_0":34
					},
					"indices":35,
					"material":7
				}
			]
		},
		{
			"name":"Cube.008",
			"primitives":[
				{
					"attributes":{
						"POSITION":36,
						"NORMAL":37,
						"TEXCOORD_0":38
					},
					"indices":39,
					"material":6
				}
			]
		}
	],
	"textures":[
		{
			"sampler":0,
			"source":0
		},
		{
			"sampler":0,
			"source":1
		},
		{
			"sampler":0,
			"source":2
		},
		{
			"sampler":0,
			"source":2
		},
		{
			"sampler":0,
			"source":3
		},
		{
			"sampler":0,
			"source":4
		},
		{
			"sampler":0,
			"source":4
		},
		{
			"sampler":0,
			"source":5
		}
	],
	"images":[
		{
			"mimeType":"image/jpeg",
			"name":"rusty_metal_sheet_diff_4k",
			"uri":"rusty_metal_sheet_diff_4k.jpg"
		},
		{
			"mimeType":"image/png",
			"name":"green_metal_rust_rough_4k",
			"uri":"green_metal_rust_rough_4k.png"
		},
		{
			"mimeType":"image/png",
			"name":"rusty_metal_sheet_rough_4k.exr",
			"uri":"rusty_metal_sheet_rough_4k_exr.png"
		},
		{
			"mimeType":"image/jpeg",
			"name":"plywood_diff_4k",
			"uri":"plywood_diff_4k.jpg"
		},
		{
			"mimeType":"image/jpeg",
			"name":"fine_grained_wood_col_4k",
			"uri":"fine_grained_wood_col_4k.jpg"
		},
		{
			"mimeType":"image/jpeg",
			"name":"factory_wall_diff_4k",
			"uri":"factory_wall_diff_4k.jpg"
		}
	],
	"accessors":[
		{
			"bufferView":0,
			"componentType":5126,
			"count":2880,
			"max":[
				69.50379943847656,
				-0.07713146507740021,
				25.591167449951172
			],
			"min":[
				-69.50289154052734,
				-1.898742914199829,
				-25.82773208618164
			],
			"type":"VEC3"
		},
		{
			"bufferView":1,
			"componentType":5126,
			"count":2880,
			"type":"VEC3"
		},
		{
			"bufferView":2,
			"componentType":5126,
			"count":2880,
			"type":"VEC2"
		},
		{
			"bufferView":3,
			"componentType":5123,
			"count":11520,
			"type":"SCALAR"
		},
		{
			"bufferView":4,
			"componentType":5126,
			"count":990,
			"max":[
				68.82585144042969,
				-0.07803173363208771,
				24.913265228271484
			],
			"min":[
				-68.82494354248047,
				-0.08675403892993927,
				-25.149723052978516
			],
			"type":"VEC3"
		},
		{
			"bufferView":5,
			"componentType":5126,
			"count":990,
			"type":"VEC3"
		},
		{
			"bufferView":6,
			"componentType":5126,
			"count":990,
			"type":"VEC2"
		},
		{
			"bufferView":7,
			"componentType":5123,
			"count":2880,
			"type":"SCALAR"
		},
		{
			"bufferView":8,
			"componentType":5126,
			"count":10770,
			"max":[
				68.82585144042969,
				1.3156754970550537,
				24.913265228271484
			],
			"min":[
				-68.82494354248047,
				-0.08675403892993927,
				-25.149723052978516
			],
			"type":"VEC3"
		},
		{
			"bufferView":9,
			"componentType":5126,
			"count":10770,
			"type":"VEC3"
		},
		{
			"bufferView":10,
			"componentType":5126,
			"count":10770,
			"type":"VEC2"
		},
		{
			"bufferView":11,
			"componentType":5123,
			"count":43020,
			"type":"SCALAR"
		},
		{
			"bufferView":12,
			"componentType":5126,
			"count":20,
			"max":[
				0.5753042101860046,
				0.2841225564479828,
				0.016967644914984703
			],
			"min":[
				-0.5610884428024292,
				-0.2746085226535797,
				-0.01692880131304264
			],
			"type":"VEC3"
		},
		{
			"bufferView":13,
			"componentType":5126,
			"count":20,
			"type":"VEC3"
		},
		{
			"bufferView":14,
			"componentType":5126,
			"count":20,
			"type":"VEC2"
		},
		{
			"bufferView":15,
			"componentType":5123,
			"count":30,
			"type":"SCALAR"
		},
		{
			"bufferView":16,
			"componentType":5126,
			"count":1784,
			"max":[
				0.061446480453014374,
				-0.17933645844459534,
				0.0829085037112236
			],
			"min":[
				0.005084209144115448,
				-0.23605337738990784,
				-0.08460152894258499
			],
			"type":"VEC3"
		},
		{
			"bufferView":17,
			"componentType":5126,
			"count":1784,
			"type":"VEC3"
		},
		{
			"bufferView":18,
			"componentType":5126,
			"count":1784,
			"type":"VEC2"
		},
		{
			"bufferView":19,
			"componentType":5123,
			"count":9192,
			"type":"SCALAR"
		},
		{
			"bufferView":20,
			"componentType":5126,
			"count":98304,
			"max":[
				10.343279838562012,
				16.154556274414062,
				102.03848266601562
			],
			"min":[
				-9.656720161437988,
				-15.91219425201416,
				-102.2216567993164
			],
			"type":"VEC3"
		},
		{
			"bufferView":21,
			"componentType":5126,
			"count":98304,
			"type":"VEC3"
		},
		{
			"bufferView":22,
			"componentType":5126,
			"count":98304,
			"type":"VEC2"
		},
		{
			"bufferView":23,
			"componentType":5125,
			"count":276480,
			"type":"SCALAR"
		},
		{
			"bufferView":24,
			"componentType":5126,
			"count":109440,
			"max":[
				10.343279838562012,
				16.154556274414062,
				102.03848266601562
			],
			"min":[
				-9.656720161437988,
				-15.91219425201416,
				-102.2216567993164
			],
			"type":"VEC3"
		},
		{
			"bufferView":25,
			"componentType":5126,
			"count":109440,
			"type":"VEC3"
		},
		{
			"bufferView":26,
			"componentType":5126,
			"count":109440,
			"type":"VEC2"
		},
		{
			"bufferView":27,
			"componentType":5125,
			"count":294912,
			"type":"SCALAR"
		},
		{
			"bufferView":28,
			"componentType":5126,
			"count":1127964,
			"max":[
				9.0485258102417,
				16.642627716064453,
				102.53355407714844
			],
			"min":[
				-9.12023639678955,
				-16.596263885498047,
				-102.68523406982422
			],
			"type":"VEC3"
		},
		{
			"bufferView":29,
			"componentType":5126,
			"count":1127964,
			"type":"VEC3"
		},
		{
			"bufferView":30,
			"componentType":5126,
			"count":1127964,
			"type":"VEC2"
		},
		{
			"bufferView":31,
			"componentType":5125,
			"count":6714216,
			"type":"SCALAR"
		},
		{
			"bufferView":32,
			"componentType":5126,
			"count":416,
			"max":[
				243.29330444335938,
				0.027918100357055664,
				66.301513671875
			],
			"min":[
				-243.29286193847656,
				-0.027918577194213867,
				-66.81647491455078
			],
			"type":"VEC3"
		},
		{
			"bufferView":33,
			"componentType":5126,
			"count":416,
			"type":"VEC3"
		},
		{
			"bufferView":34,
			"componentType":5126,
			"count":416,
			"type":"VEC2"
		},
		{
			"bufferView":35,
			"componentType":5123,
			"count":816,
			"type":"SCALAR"
		},
		{
			"bufferView":36,
			"componentType":5126,
			"count":157259,
			"max":[
				157.55575561523438,
				92.28854370117188,
				516.8095092773438
			],
			"min":[
				-134.98622131347656,
				-105.300537109375,
				-471.28240966796875
			],
			"type":"VEC3"
		},
		{
			"bufferView":37,
			"componentType":5126,
			"count":157259,
			"type":"VEC3"
		},
		{
			"bufferView":38,
			"componentType":5126,
			"count":157259,
			"type":"VEC2"
		},
		{
			"bufferView":39,
			"componentType":5125,
			"count":250332,
			"type":"SCALAR"
		}
	],
	"bufferViews":[
		{
			"buffer":0,
			"byteLength":34560,
			"byteOffset":0,
			"target":34962
		},
		{
			"buffer":0,
			"byteLength":34560,
			"byteOffset":34560,
			"target":34962
		},
		{
			"buffer":0,
			"byteLength":23040,
			"byteOffset":69120,
			"target":34962
		},
		{
			"buffer":0,
			"byteLength":23040,
			"byteOffset":92160,
			"target":34963
		},
		{
			"buffer":0,
			"byteLength":11880,
			"byteOffset":115200,
			"target":34962
		},
		{
			"buffer":0,
			"byteLength":11880,
			"byteOffset":127080,
			"target":34962
		},
		{
			"buffer":0,
			"byteLength":7920,
			"byteOffset":138960,
			"target":34962
		},
		{
			"buffer":0,
			"byteLength":5760,
			"byteOffset":146880,
			"target":34963
		},
		{
			"buffer":0,
			"byteLength":129240,
			"byteOffset":152640,
			"target":34962
		},
		{
			"buffer":0,
			"byteLength":129240,
			"byteOffset":281880,
			"target":34962
		},
		{
			"buffer":0,
			"byteLength":86160,
			"byteOffset":411120,
			"target":34962
		},
		{
			"buffer":0,
			"byteLength":86040,
			"byteOffset":497280,
			"target":34963
		},
		{
			"buffer":0,
			"byteLength":240,
			"byteOffset":583320,
			"target":34962
		},
		{
			"buffer":0,
			"byteLength":240,
			"byteOffset":583560,
			"target":34962
		},
		{
			"buffer":0,
			"byteLength":160,
			"byteOffset":583800,
			"target":34962
		},
		{
			"buffer":0,
			"byteLength":60,
			"byteOffset":583960,
			"target":34963
		},
		{
			"buffer":0,
			"byteLength":21408,
			"byteOffset":584020,
			"target":34962
		},
		{
			"buffer":0,
			"byteLength":21408,
			"byteOffset":605428,
			"target":34962
		},
		{
			"buffer":0,
			"byteLength":14272,
			"byteOffset":626836,
			"target":34962
		},
		{
			"buffer":0,
			"byteLength":18384,
			"byteOffset":641108,
			"target":34963
		},
		{
			"buffer":0,
			"byteLength":1179648,
			"byteOffset":659492,
			"target":34962
		},
		{
			"buffer":0,
			"byteLength":1179648,
			"byteOffset":1839140,
			"target":34962
		},
		{
			"buffer":0,
			"byteLength":786432,
			"byteOffset":3018788,
			"target":34962
		},
		{
			"buffer":0,
			"byteLength":1105920,
			"byteOffset":3805220,
			"target":34963
		},
		{
			"buffer":0,
			"byteLength":1313280,
			"byteOffset":4911140,
			"target":34962
		},
		{
			"buffer":0,
			"byteLength":1313280,
			"byteOffset":6224420,
			"target":34962
		},
		{
			"buffer":0,
			"byteLength":875520,
			"byteOffset":7537700,
			"target":34962
		},
		{
			"buffer":0,
			"byteLength":1179648,
			"byteOffset":8413220,
			"target":34963
		},
		{
			"buffer":0,
			"byteLength":13535568,
			"byteOffset":9592868,
			"target":34962
		},
		{
			"buffer":0,
			"byteLength":13535568,
			"byteOffset":23128436,
			"target":34962
		},
		{
			"buffer":0,
			"byteLength":9023712,
			"byteOffset":36664004,
			"target":34962
		},
		{
			"buffer":0,
			"byteLength":26856864,
			"byteOffset":45687716,
			"target":34963
		},
		{
			"buffer":0,
			"byteLength":4992,
			"byteOffset":72544580,
			"target":34962
		},
		{
			"buffer":0,
			"byteLength":4992,
			"byteOffset":72549572,
			"target":34962
		},
		{
			"buffer":0,
			"byteLength":3328,
			"byteOffset":72554564,
			"target":34962
		},
		{
			"buffer":0,
			"byteLength":1632,
			"byteOffset":72557892,
			"target":34963
		},
		{
			"buffer":0,
			"byteLength":1887108,
			"byteOffset":72559524,
			"target":34962
		},
		{
			"buffer":0,
			"byteLength":1887108,
			"byteOffset":74446632,
			"target":34962
		},
		{
			"buffer":0,
			"byteLength":1258072,
			"byteOffset":76333740,
			"target":34962
		},
		{
			"buffer":0,
			"byteLength":1001328,
			"byteOffset":77591812,
			"target":34963
		}
	],
	"samplers":[
		{
			"magFilter":9729,
			"minFilter":9987
		}
	],
	"buffers":[
		{
			"byteLength":78593140,
			"uri":"WarehousePlanks.bin"
		}
	]
}
