{
	"asset":{
		"generator":"Khronos glTF Blender I/O v4.1.63",
		"version":"2.0"
	},
	"scene":0,
	"scenes":[
		{
			"name":"Scene",
			"nodes":[
				0,
				1
			]
		}
	],
	"nodes":[
		{
			"mesh":0,
			"name":"Crate",
			"rotation":[
				0,
				-0.30070579051971436,
				0,
				0.9537169933319092
			],
			"scale":[
				3,
				3,
				3
			],
			"translation":[
				-102.48301696777344,
				-12.133134841918945,
				-20.18511390686035
			]
		},
		{
			"mesh":1,
			"name":"CrateLid",
			"rotation":[
				-0.01664465293288231,
				-0.30065998435020447,
				0.0052480390295386314,
				0.9535717368125916
			],
			"scale":[
				3,
				3,
				3
			],
			"translation":[
				-97.07848358154297,
				-12.414778709411621,
				-20.579448699951172
			]
		}
	],
	"materials":[
		{
			"doubleSided":true,
			"name":"Crate",
			"pbrMetallicRoughness":{
				"baseColorTexture":{
					"index":0
				},
				"metallicFactor":0
			}
		}
	],
	"meshes":[
		{
			"name":"Cube",
			"primitives":[
				{
					"attributes":{
						"POSITION":0,
						"NORMAL":1,
						"TEXCOORD_0":2
					},
					"indices":3,
					"material":0
				}
			]
		},
		{
			"name":"Cube.928",
			"primitives":[
				{
					"attributes":{
						"POSITION":4,
						"NORMAL":5,
						"TEXCOORD_0":6
					},
					"indices":7,
					"material":0
				}
			]
		}
	],
	"textures":[
		{
			"sampler":0,
			"source":0
		}
	],
	"images":[
		{
			"mimeType":"image/jpeg",
			"name":"wood_planks_dirt_diff_4k",
			"uri":"wood_planks_dirt_diff_4k.jpg"
		}
	],
	"accessors":[
		{
			"bufferView":0,
			"componentType":5126,
			"count":312,
			"max":[
				1.0428314208984375,
				0.9997264742851257,
				1.041280746459961
			],
			"min":[
				-1.0428314208984375,
				-1.000273585319519,
				-1.044382095336914
			],
			"type":"VEC3"
		},
		{
			"bufferView":1,
			"componentType":5126,
			"count":312,
			"type":"VEC3"
		},
		{
			"bufferView":2,
			"componentType":5126,
			"count":312,
			"type":"VEC2"
		},
		{
			"bufferView":3,
			"componentType":5123,
			"count":492,
			"type":"SCALAR"
		},
		{
			"bufferView":4,
			"componentType":5126,
			"count":90,
			"max":[
				0.8840911984443665,
				1.0126910209655762,
				1.11394464969635
			],
			"min":[
				-0.7273584008216858,
				-0.9242411255836487,
				-1.163709044456482
			],
			"type":"VEC3"
		},
		{
			"bufferView":5,
			"componentType":5126,
			"count":90,
			"type":"VEC3"
		},
		{
			"bufferView":6,
			"componentType":5126,
			"count":90,
			"type":"VEC2"
		},
		{
			"bufferView":7,
			"componentType":5123,
			"count":138,
			"type":"SCALAR"
		}
	],
	"bufferViews":[
		{
			"buffer":0,
			"byteLength":3744,
			"byteOffset":0,
			"target":34962
		},
		{
			"buffer":0,
			"byteLength":3744,
			"byteOffset":3744,
			"target":34962
		},
		{
			"buffer":0,
			"byteLength":2496,
			"byteOffset":7488,
			"target":34962
		},
		{
			"buffer":0,
			"byteLength":984,
			"byteOffset":9984,
			"target":34963
		},
		{
			"buffer":0,
			"byteLength":1080,
			"byteOffset":10968,
			"target":34962
		},
		{
			"buffer":0,
			"byteLength":1080,
			"byteOffset":12048,
			"target":34962
		},
		{
			"buffer":0,
			"byteLength":720,
			"byteOffset":13128,
			"target":34962
		},
		{
			"buffer":0,
			"byteLength":276,
			"byteOffset":13848,
			"target":34963
		}
	],
	"samplers":[
		{
			"magFilter":9729,
			"minFilter":9987
		}
	],
	"buffers":[
		{
			"byteLength":14124,
			"uri":"WarehouseCrate.bin"
		}
	]
}
