{
	"asset":{
		"generator":"Khronos glTF Blender I/O v4.1.63",
		"version":"2.0"
	},
	"scene":0,
	"scenes":[
		{
			"name":"Scene",
			"nodes":[
				0
			]
		}
	],
	"nodes":[
		{
			"mesh":0,
			"name":"ShelfLegs",
			"scale":[
				0.4509545564651489,
				1,
				0.3677451014518738
			],
			"translation":[
				-188.17047119140625,
				8.557398796081543,
				149.22686767578125
			]
		}
	],
	"materials":[
		{
			"doubleSided":true,
			"name":"DeepBlueTiles",
			"pbrMetallicRoughness":{
				"baseColorTexture":{
					"index":0
				},
				"metallicFactor":0,
				"roughnessFactor":0.5
			}
		},
		{
			"doubleSided":true,
			"name":"Material.001",
			"pbrMetallicRoughness":{
				"baseColorTexture":{
					"index":1
				},
				"metallicFactor":0,
				"roughnessFactor":0.5
			}
		},
		{
			"doubleSided":true,
			"name":"OrangeTiles",
			"pbrMetallicRoughness":{
				"baseColorTexture":{
					"index":2
				},
				"metallicFactor":0,
				"roughnessFactor":0.5
			}
		},
		{
			"doubleSided":true,
			"name":"WoodDirtCedar",
			"pbrMetallicRoughness":{
				"baseColorTexture":{
					"index":3
				},
				"metallicFactor":0
			}
		}
	],
	"meshes":[
		{
			"name":"Cube.001",
			"primitives":[
				{
					"attributes":{
						"POSITION":0,
						"NORMAL":1,
						"TEXCOORD_0":2
					},
					"indices":3,
					"material":0
				},
				{
					"attributes":{
						"POSITION":4,
						"NORMAL":5,
						"TEXCOORD_0":6
					},
					"indices":7,
					"material":1
				},
				{
					"attributes":{
						"POSITION":8,
						"NORMAL":9,
						"TEXCOORD_0":10
					},
					"indices":11,
					"material":2
				},
				{
					"attributes":{
						"POSITION":12,
						"NORMAL":13,
						"TEXCOORD_0":14
					},
					"indices":15,
					"material":3
				}
			]
		}
	],
	"textures":[
		{
			"sampler":0,
			"source":0
		},
		{
			"sampler":0,
			"source":1
		},
		{
			"sampler":0,
			"source":0
		},
		{
			"sampler":0,
			"source":2
		}
	],
	"images":[
		{
			"mimeType":"image/jpeg",
			"name":"rusty_metal_sheet_diff_4k",
			"uri":"rusty_metal_sheet_diff_4k.jpg"
		},
		{
			"mimeType":"image/png",
			"name":"a7088c96946846ebc6d332db21325a01",
			"uri":"a7088c96946846ebc6d332db21325a01.png"
		},
		{
			"mimeType":"image/jpeg",
			"name":"fine_grained_wood_col_4k",
			"uri":"fine_grained_wood_col_4k.jpg"
		}
	],
	"accessors":[
		{
			"bufferView":0,
			"componentType":5126,
			"count":2257294,
			"max":[
				774.6376953125,
				25.577804565429688,
				-154.7175750732422
			],
			"min":[
				-43.00531005859375,
				-23.691354751586914,
				-198.16233825683594
			],
			"type":"VEC3"
		},
		{
			"bufferView":1,
			"componentType":5126,
			"count":2257294,
			"type":"VEC3"
		},
		{
			"bufferView":2,
			"componentType":5126,
			"count":2257294,
			"type":"VEC2"
		},
		{
			"bufferView":3,
			"componentType":5125,
			"count":3697764,
			"type":"SCALAR"
		},
		{
			"bufferView":4,
			"componentType":5126,
			"count":56,
			"max":[
				769.1068115234375,
				-0.3730921745300293,
				-154.7176513671875
			],
			"min":[
				-37.4747314453125,
				-17.25044822692871,
				-198.162353515625
			],
			"type":"VEC3"
		},
		{
			"bufferView":5,
			"componentType":5126,
			"count":56,
			"type":"VEC3"
		},
		{
			"bufferView":6,
			"componentType":5126,
			"count":56,
			"type":"VEC2"
		},
		{
			"bufferView":7,
			"componentType":5123,
			"count":84,
			"type":"SCALAR"
		},
		{
			"bufferView":8,
			"componentType":5126,
			"count":88599,
			"max":[
				771.4287109375,
				0.5282869338989258,
				-154.58343505859375
			],
			"min":[
				-39.79638671875,
				-20.85594940185547,
				-198.29647827148438
			],
			"type":"VEC3"
		},
		{
			"bufferView":9,
			"componentType":5126,
			"count":88599,
			"type":"VEC3"
		},
		{
			"bufferView":10,
			"componentType":5126,
			"count":88599,
			"type":"VEC2"
		},
		{
			"bufferView":11,
			"componentType":5125,
			"count":162078,
			"type":"SCALAR"
		},
		{
			"bufferView":12,
			"componentType":5126,
			"count":78500,
			"max":[
				766.202392578125,
				1.7311601638793945,
				-155.88232421875
			],
			"min":[
				-34.281463623046875,
				-17.25045394897461,
				-197.02198791503906
			],
			"type":"VEC3"
		},
		{
			"bufferView":13,
			"componentType":5126,
			"count":78500,
			"type":"VEC3"
		},
		{
			"bufferView":14,
			"componentType":5126,
			"count":78500,
			"type":"VEC2"
		},
		{
			"bufferView":15,
			"componentType":5125,
			"count":225036,
			"type":"SCALAR"
		}
	],
	"bufferViews":[
		{
			"buffer":0,
			"byteLength":27087528,
			"byteOffset":0,
			"target":34962
		},
		{
			"buffer":0,
			"byteLength":27087528,
			"byteOffset":27087528,
			"target":34962
		},
		{
			"buffer":0,
			"byteLength":18058352,
			"byteOffset":54175056,
			"target":34962
		},
		{
			"buffer":0,
			"byteLength":14791056,
			"byteOffset":72233408,
			"target":34963
		},
		{
			"buffer":0,
			"byteLength":672,
			"byteOffset":87024464,
			"target":34962
		},
		{
			"buffer":0,
			"byteLength":672,
			"byteOffset":87025136,
			"target":34962
		},
		{
			"buffer":0,
			"byteLength":448,
			"byteOffset":87025808,
			"target":34962
		},
		{
			"buffer":0,
			"byteLength":168,
			"byteOffset":87026256,
			"target":34963
		},
		{
			"buffer":0,
			"byteLength":1063188,
			"byteOffset":87026424,
			"target":34962
		},
		{
			"buffer":0,
			"byteLength":1063188,
			"byteOffset":88089612,
			"target":34962
		},
		{
			"buffer":0,
			"byteLength":708792,
			"byteOffset":89152800,
			"target":34962
		},
		{
			"buffer":0,
			"byteLength":648312,
			"byteOffset":89861592,
			"target":34963
		},
		{
			"buffer":0,
			"byteLength":942000,
			"byteOffset":90509904,
			"target":34962
		},
		{
			"buffer":0,
			"byteLength":942000,
			"byteOffset":91451904,
			"target":34962
		},
		{
			"buffer":0,
			"byteLength":628000,
			"byteOffset":92393904,
			"target":34962
		},
		{
			"buffer":0,
			"byteLength":900144,
			"byteOffset":93021904,
			"target":34963
		}
	],
	"samplers":[
		{
			"magFilter":9729,
			"minFilter":9987
		}
	],
	"buffers":[
		{
			"byteLength":93922048,
			"uri":"WarehouseShelves3.bin"
		}
	]
}
