{
	"asset":{
		"generator":"Khronos glTF Blender I/O v4.1.63",
		"version":"2.0"
	},
	"scene":0,
	"scenes":[
		{
			"name":"Scene",
			"nodes":[
				0
			]
		}
	],
	"nodes":[
		{
			"mesh":0,
			"name":"BrokenShelfLegs1",
			"rotation":[
				0.6904176473617554,
				-0.15272027254104614,
				-0.15272024273872375,
				0.6904176473617554
			],
			"scale":[
				0.4509545564651489,
				1,
				0.3677451014518738
			],
			"translation":[
				203.43606567382812,
				-7.154603004455566,
				2.6034374237060547
			]
		}
	],
	"materials":[
		{
			"doubleSided":true,
			"name":"DeepBlueTiles",
			"pbrMetallicRoughness":{
				"baseColorTexture":{
					"index":0
				},
				"metallicFactor":0,
				"roughnessFactor":0.5
			}
		}
	],
	"meshes":[
		{
			"name":"Cube.904",
			"primitives":[
				{
					"attributes":{
						"POSITION":0,
						"NORMAL":1,
						"TEXCOORD_0":2
					},
					"indices":3,
					"material":0
				}
			]
		}
	],
	"textures":[
		{
			"sampler":0,
			"source":0
		}
	],
	"images":[
		{
			"mimeType":"image/jpeg",
			"name":"rusty_metal_sheet_diff_4k",
			"uri":"rusty_metal_sheet_diff_4k.jpg"
		}
	],
	"accessors":[
		{
			"bufferView":0,
			"componentType":5126,
			"count":2258484,
			"max":[
				28.34480094909668,
				155.75355529785156,
				21.70663070678711
			],
			"min":[
				-2.660247802734375,
				-62.4658317565918,
				-33.62538146972656
			],
			"type":"VEC3"
		},
		{
			"bufferView":1,
			"componentType":5126,
			"count":2258484,
			"type":"VEC3"
		},
		{
			"bufferView":2,
			"componentType":5126,
			"count":2258484,
			"type":"VEC2"
		},
		{
			"bufferView":3,
			"componentType":5125,
			"count":3697764,
			"type":"SCALAR"
		}
	],
	"bufferViews":[
		{
			"buffer":0,
			"byteLength":27101808,
			"byteOffset":0,
			"target":34962
		},
		{
			"buffer":0,
			"byteLength":27101808,
			"byteOffset":27101808,
			"target":34962
		},
		{
			"buffer":0,
			"byteLength":18067872,
			"byteOffset":54203616,
			"target":34962
		},
		{
			"buffer":0,
			"byteLength":14791056,
			"byteOffset":72271488,
			"target":34963
		}
	],
	"samplers":[
		{
			"magFilter":9729,
			"minFilter":9987
		}
	],
	"buffers":[
		{
			"byteLength":87062544,
			"uri":"WarehouseBrokenShelfLegs2.bin"
		}
	]
}
