{
	"asset":{
		"generator":"Khronos glTF Blender I/O v4.1.63",
		"version":"2.0"
	},
	"extensionsUsed":[
		"KHR_materials_specular"
	],
	"scene":0,
	"scenes":[
		{
			"name":"Scene",
			"nodes":[
				0
			]
		}
	],
	"nodes":[
		{
			"mesh":0,
			"name":"DoorFrameRed",
			"scale":[
				1.0943174362182617,
				1,
				1
			],
			"translation":[
				299.6902770996094,
				-22.41949462890625,
				-34.845947265625
			]
		}
	],
	"materials":[
		{
			"doubleSided":true,
			"extensions":{
				"KHR_materials_specular":{
					"specularColorFactor":[
						0.21401596069335938,
						0.21401596069335938,
						0.21401596069335938
					]
				}
			},
			"name":"UsedMetal",
			"pbrMetallicRoughness":{
				"baseColorTexture":{
					"index":0
				},
				"roughnessFactor":0.5
			}
		},
		{
			"doubleSided":true,
			"name":"Material.005",
			"pbrMetallicRoughness":{
				"baseColorTexture":{
					"index":1
				},
				"metallicFactor":0,
				"roughnessFactor":0.5
			}
		}
	],
	"meshes":[
		{
			"name":"Cylinder.034",
			"primitives":[
				{
					"attributes":{
						"POSITION":0,
						"NORMAL":1,
						"TEXCOORD_0":2
					},
					"indices":3,
					"material":0
				},
				{
					"attributes":{
						"POSITION":4,
						"NORMAL":5,
						"TEXCOORD_0":6
					},
					"indices":7,
					"material":1
				}
			]
		}
	],
	"textures":[
		{
			"sampler":0,
			"source":0
		},
		{
			"sampler":0,
			"source":1
		}
	],
	"images":[
		{
			"mimeType":"image/jpeg",
			"name":"rusty_metal_sheet_diff_4k",
			"uri":"rusty_metal_sheet_diff_4k.jpg"
		},
		{
			"mimeType":"image/jpeg",
			"name":"fine_grained_wood_col_4k",
			"uri":"fine_grained_wood_col_4k.jpg"
		}
	],
	"accessors":[
		{
			"bufferView":0,
			"componentType":5126,
			"count":4423,
			"max":[
				-204.63499450683594,
				36.038700103759766,
				-26.650848388671875
			],
			"min":[
				-484.984375,
				7.114292144775391,
				-28.684829711914062
			],
			"type":"VEC3"
		},
		{
			"bufferView":1,
			"componentType":5126,
			"count":4423,
			"type":"VEC3"
		},
		{
			"bufferView":2,
			"componentType":5126,
			"count":4423,
			"type":"VEC2"
		},
		{
			"bufferView":3,
			"componentType":5123,
			"count":9660,
			"type":"SCALAR"
		},
		{
			"bufferView":4,
			"componentType":5126,
			"count":160,
			"max":[
				-204.7169647216797,
				35.97728729248047,
				-26.99439239501953
			],
			"min":[
				-484.90234375,
				35.97728729248047,
				-28.3413028717041
			],
			"type":"VEC3"
		},
		{
			"bufferView":5,
			"componentType":5126,
			"count":160,
			"type":"VEC3"
		},
		{
			"bufferView":6,
			"componentType":5126,
			"count":160,
			"type":"VEC2"
		},
		{
			"bufferView":7,
			"componentType":5123,
			"count":360,
			"type":"SCALAR"
		}
	],
	"bufferViews":[
		{
			"buffer":0,
			"byteLength":53076,
			"byteOffset":0,
			"target":34962
		},
		{
			"buffer":0,
			"byteLength":53076,
			"byteOffset":53076,
			"target":34962
		},
		{
			"buffer":0,
			"byteLength":35384,
			"byteOffset":106152,
			"target":34962
		},
		{
			"buffer":0,
			"byteLength":19320,
			"byteOffset":141536,
			"target":34963
		},
		{
			"buffer":0,
			"byteLength":1920,
			"byteOffset":160856,
			"target":34962
		},
		{
			"buffer":0,
			"byteLength":1920,
			"byteOffset":162776,
			"target":34962
		},
		{
			"buffer":0,
			"byteLength":1280,
			"byteOffset":164696,
			"target":34962
		},
		{
			"buffer":0,
			"byteLength":720,
			"byteOffset":165976,
			"target":34963
		}
	],
	"samplers":[
		{
			"magFilter":9729,
			"minFilter":9987
		}
	],
	"buffers":[
		{
			"byteLength":166696,
			"uri":"WarehouseRedDoorFrames.bin"
		}
	]
}
