{
	"asset":{
		"generator":"Khronos glTF Blender I/O v4.1.63",
		"version":"2.0"
	},
	"scene":0,
	"scenes":[
		{
			"name":"Scene",
			"nodes":[
				0
			]
		}
	],
	"nodes":[
		{
			"mesh":0,
			"name":"BrokenShelfLegs2",
			"rotation":[
				0.3705761134624481,
				0.37057608366012573,
				-0.6022237539291382,
				0.6022236943244934
			],
			"scale":[
				0.4509545564651489,
				1,
				0.3677451014518738
			],
			"translation":[
				-206.235107421875,
				-7.156560897827148,
				-54.080421447753906
			]
		}
	],
	"materials":[
		{
			"doubleSided":true,
			"name":"DeepBlueTiles",
			"pbrMetallicRoughness":{
				"baseColorTexture":{
					"index":0
				},
				"metallicFactor":0,
				"roughnessFactor":0.5
			}
		}
	],
	"meshes":[
		{
			"name":"Cube.893",
			"primitives":[
				{
					"attributes":{
						"POSITION":0,
						"NORMAL":1,
						"TEXCOORD_0":2
					},
					"indices":3,
					"material":0
				}
			]
		}
	],
	"textures":[
		{
			"sampler":0,
			"source":0
		}
	],
	"images":[
		{
			"mimeType":"image/jpeg",
			"name":"rusty_metal_sheet_diff_4k",
			"uri":"rusty_metal_sheet_diff_4k.jpg"
		}
	],
	"accessors":[
		{
			"bufferView":0,
			"componentType":5126,
			"count":2258028,
			"max":[
				16.266010284423828,
				311.3847961425781,
				25.427162170410156
			],
			"min":[
				-8.713351249694824,
				-31.96979331970215,
				-27.488588333129883
			],
			"type":"VEC3"
		},
		{
			"bufferView":1,
			"componentType":5126,
			"count":2258028,
			"type":"VEC3"
		},
		{
			"bufferView":2,
			"componentType":5126,
			"count":2258028,
			"type":"VEC2"
		},
		{
			"bufferView":3,
			"componentType":5125,
			"count":3697764,
			"type":"SCALAR"
		}
	],
	"bufferViews":[
		{
			"buffer":0,
			"byteLength":27096336,
			"byteOffset":0,
			"target":34962
		},
		{
			"buffer":0,
			"byteLength":27096336,
			"byteOffset":27096336,
			"target":34962
		},
		{
			"buffer":0,
			"byteLength":18064224,
			"byteOffset":54192672,
			"target":34962
		},
		{
			"buffer":0,
			"byteLength":14791056,
			"byteOffset":72256896,
			"target":34963
		}
	],
	"samplers":[
		{
			"magFilter":9729,
			"minFilter":9987
		}
	],
	"buffers":[
		{
			"byteLength":87047952,
			"uri":"WarehouseBrokenShelfLegs1.bin"
		}
	]
}
