{
	"asset":{
		"generator":"Khronos glTF Blender I/O v4.1.63",
		"version":"2.0"
	},
	"scene":0,
	"scenes":[
		{
			"name":"Scene",
			"nodes":[
				0
			]
		}
	],
	"nodes":[
		{
			"mesh":0,
			"name":"Pallets.002",
			"scale":[
				0.4509545564651489,
				1,
				0.3677451014518738
			],
			"translation":[
				-85.11643981933594,
				8.622879028320312,
				149.2821502685547
			]
		}
	],
	"materials":[
		{
			"doubleSided":true,
			"name":"WoodDirtCedar",
			"pbrMetallicRoughness":{
				"baseColorTexture":{
					"index":0
				},
				"metallicFactor":0
			}
		},
		{
			"doubleSided":true,
			"name":"Material.001",
			"pbrMetallicRoughness":{
				"baseColorTexture":{
					"index":1
				},
				"metallicFactor":0,
				"roughnessFactor":0.5
			}
		},
		{
			"doubleSided":true,
			"name":"DeepBlueTiles",
			"pbrMetallicRoughness":{
				"baseColorTexture":{
					"index":2
				},
				"metallicFactor":0,
				"roughnessFactor":0.5
			}
		},
		{
			"doubleSided":true,
			"name":"OrangeTiles",
			"pbrMetallicRoughness":{
				"baseColorTexture":{
					"index":3
				},
				"metallicFactor":0,
				"roughnessFactor":0.5
			}
		}
	],
	"meshes":[
		{
			"name":"Cube.020",
			"primitives":[
				{
					"attributes":{
						"POSITION":0,
						"NORMAL":1,
						"TEXCOORD_0":2
					},
					"indices":3,
					"material":0
				},
				{
					"attributes":{
						"POSITION":4,
						"NORMAL":5,
						"TEXCOORD_0":6
					},
					"indices":7,
					"material":1
				},
				{
					"attributes":{
						"POSITION":8,
						"NORMAL":9,
						"TEXCOORD_0":10
					},
					"indices":11,
					"material":2
				},
				{
					"attributes":{
						"POSITION":12,
						"NORMAL":13,
						"TEXCOORD_0":14
					},
					"indices":15,
					"material":3
				}
			]
		}
	],
	"textures":[
		{
			"sampler":0,
			"source":0
		},
		{
			"sampler":0,
			"source":1
		},
		{
			"sampler":0,
			"source":2
		},
		{
			"sampler":0,
			"source":2
		}
	],
	"images":[
		{
			"mimeType":"image/jpeg",
			"name":"fine_grained_wood_col_4k",
			"uri":"fine_grained_wood_col_4k.jpg"
		},
		{
			"mimeType":"image/png",
			"name":"a7088c96946846ebc6d332db21325a01",
			"uri":"a7088c96946846ebc6d332db21325a01.png"
		},
		{
			"mimeType":"image/jpeg",
			"name":"rusty_metal_sheet_diff_4k",
			"uri":"rusty_metal_sheet_diff_4k.jpg"
		}
	],
	"accessors":[
		{
			"bufferView":0,
			"componentType":5126,
			"count":67746,
			"max":[
				263.4076843261719,
				1.6656794548034668,
				20.41845703125
			],
			"min":[
				-262.8056640625,
				-17.315933227539062,
				-20.72119140625
			],
			"type":"VEC3"
		},
		{
			"bufferView":1,
			"componentType":5126,
			"count":67746,
			"type":"VEC3"
		},
		{
			"bufferView":2,
			"componentType":5126,
			"count":67746,
			"type":"VEC2"
		},
		{
			"bufferView":3,
			"componentType":5125,
			"count":192888,
			"type":"SCALAR"
		},
		{
			"bufferView":4,
			"componentType":5126,
			"count":48,
			"max":[
				266.31207275390625,
				-0.43857288360595703,
				21.5831298828125
			],
			"min":[
				-265.99884033203125,
				-17.315929412841797,
				-21.861572265625
			],
			"type":"VEC3"
		},
		{
			"bufferView":5,
			"componentType":5126,
			"count":48,
			"type":"VEC3"
		},
		{
			"bufferView":6,
			"componentType":5126,
			"count":48,
			"type":"VEC2"
		},
		{
			"bufferView":7,
			"componentType":5123,
			"count":72,
			"type":"SCALAR"
		},
		{
			"bufferView":8,
			"componentType":5126,
			"count":1934686,
			"max":[
				271.843017578125,
				25.5123233795166,
				21.583206176757812
			],
			"min":[
				-271.5294189453125,
				-23.7568359375,
				-21.861560821533203
			],
			"type":"VEC3"
		},
		{
			"bufferView":9,
			"componentType":5126,
			"count":1934686,
			"type":"VEC3"
		},
		{
			"bufferView":10,
			"componentType":5126,
			"count":1934686,
			"type":"VEC2"
		},
		{
			"bufferView":11,
			"componentType":5125,
			"count":3169512,
			"type":"SCALAR"
		},
		{
			"bufferView":12,
			"componentType":5126,
			"count":75942,
			"max":[
				268.634033203125,
				0.46280622482299805,
				21.71734619140625
			],
			"min":[
				-268.320556640625,
				-20.921430587768555,
				-21.99570083618164
			],
			"type":"VEC3"
		},
		{
			"bufferView":13,
			"componentType":5126,
			"count":75942,
			"type":"VEC3"
		},
		{
			"bufferView":14,
			"componentType":5126,
			"count":75942,
			"type":"VEC2"
		},
		{
			"bufferView":15,
			"componentType":5125,
			"count":138924,
			"type":"SCALAR"
		}
	],
	"bufferViews":[
		{
			"buffer":0,
			"byteLength":812952,
			"byteOffset":0,
			"target":34962
		},
		{
			"buffer":0,
			"byteLength":812952,
			"byteOffset":812952,
			"target":34962
		},
		{
			"buffer":0,
			"byteLength":541968,
			"byteOffset":1625904,
			"target":34962
		},
		{
			"buffer":0,
			"byteLength":771552,
			"byteOffset":2167872,
			"target":34963
		},
		{
			"buffer":0,
			"byteLength":576,
			"byteOffset":2939424,
			"target":34962
		},
		{
			"buffer":0,
			"byteLength":576,
			"byteOffset":2940000,
			"target":34962
		},
		{
			"buffer":0,
			"byteLength":384,
			"byteOffset":2940576,
			"target":34962
		},
		{
			"buffer":0,
			"byteLength":144,
			"byteOffset":2940960,
			"target":34963
		},
		{
			"buffer":0,
			"byteLength":23216232,
			"byteOffset":2941104,
			"target":34962
		},
		{
			"buffer":0,
			"byteLength":23216232,
			"byteOffset":26157336,
			"target":34962
		},
		{
			"buffer":0,
			"byteLength":15477488,
			"byteOffset":49373568,
			"target":34962
		},
		{
			"buffer":0,
			"byteLength":12678048,
			"byteOffset":64851056,
			"target":34963
		},
		{
			"buffer":0,
			"byteLength":911304,
			"byteOffset":77529104,
			"target":34962
		},
		{
			"buffer":0,
			"byteLength":911304,
			"byteOffset":78440408,
			"target":34962
		},
		{
			"buffer":0,
			"byteLength":607536,
			"byteOffset":79351712,
			"target":34962
		},
		{
			"buffer":0,
			"byteLength":555696,
			"byteOffset":79959248,
			"target":34963
		}
	],
	"samplers":[
		{
			"magFilter":9729,
			"minFilter":9987
		}
	],
	"buffers":[
		{
			"byteLength":80514944,
			"uri":"WarehouseShelves.bin"
		}
	]
}
